<?xml version="1.0" standalone="no"?>
<!DOCTYPE svg PUBLIC "-//W3C//DTD SVG 1.1//EN" "http://www.w3.org/Graphics/SVG/1.1/DTD/svg11.dtd" >
<svg xmlns="http://www.w3.org/2000/svg">
<metadata></metadata>
<defs>
<font id="etelkaregregular" horiz-adv-x="1277" >
<font-face units-per-em="2048" ascent="1536" descent="-512" />
<missing-glyph horiz-adv-x="565" />
<glyph horiz-adv-x="2048" />
<glyph horiz-adv-x="2048" />
<glyph unicode="&#xd;" horiz-adv-x="2048" />
<glyph unicode=" "  horiz-adv-x="565" />
<glyph unicode="&#x09;" horiz-adv-x="565" />
<glyph unicode="&#xa0;" horiz-adv-x="565" />
<glyph unicode="!" horiz-adv-x="679" d="M207 129q0 76 28 99.5t105 23.5q80 0 107.5 -23t27.5 -100q0 -83 -27.5 -108t-107.5 -25q-77 0 -105 25t-28 108zM211 1427h254l-55 -997h-144z" />
<glyph unicode="&#x22;" horiz-adv-x="690" d="M92 1427h193l-39 -481h-131zM412 1427h186l-39 -481h-129z" />
<glyph unicode="#" horiz-adv-x="1402" d="M55 393l13 156h270l24 362h-276l10 158h277l22 358h183l-21 -358h309l23 358h184l-22 -358h290l-10 -158h-291l-24 -362h297l-10 -156h-295l-25 -393h-184l24 393h-309l-27 -393h-182l25 393h-275zM522 549h312l22 362h-311z" />
<glyph unicode="$" horiz-adv-x="1275" d="M147 991q0 186 105 284t309 120v295h152v-287q229 0 381 -47l-52 -180q-45 21 -140 34t-189 15v-422q216 -29 318 -122t102 -265q0 -187 -105.5 -282.5t-314.5 -117.5v-297h-152v291q-240 0 -391 49l51 179q58 -20 158 -34t182 -14v445q-215 24 -314.5 105.5t-99.5 250.5 zM346 1008q0 -89 46 -130.5t169 -56.5v396q-106 -14 -160.5 -64t-54.5 -145zM713 199q108 14 162.5 63t54.5 146q0 92 -46.5 139t-170.5 67v-415z" />
<glyph unicode="%" horiz-adv-x="1865" d="M86 1014q0 133 20.5 220.5t65 137.5t106 70t152.5 20q92 0 154 -20t107 -70.5t65 -137.5t20 -220q0 -177 -38.5 -279.5t-111.5 -143t-196 -40.5q-121 0 -194 40.5t-111.5 143t-38.5 279.5zM260 1012q0 -185 37.5 -251.5t132.5 -66.5q98 0 134 65.5t36 252.5 q0 130 -16.5 195t-51 87.5t-102.5 22.5q-66 0 -100 -22.5t-52 -88.5t-18 -194zM412 0l841 1427h193l-842 -1427h-192zM1090 434q0 106 14 183t40 128.5t69 82t95.5 43t125.5 12.5q92 0 154 -20t106 -70.5t64 -138t20 -220.5q0 -177 -38 -279.5t-111 -143t-195 -40.5 q-121 0 -194 40.5t-111.5 143t-38.5 279.5zM1264 432q0 -183 37.5 -250t132.5 -67q97 0 133.5 66t36.5 251q0 129 -17 195t-51.5 89t-101.5 23q-49 0 -79 -11.5t-51.5 -45t-30.5 -93.5t-9 -157z" />
<glyph unicode="&#x26;" horiz-adv-x="1591" d="M115 375q0 164 91.5 265t285.5 110q-75 7 -127.5 28.5t-81.5 49.5t-45 74t-20.5 87.5t-4.5 102.5q0 186 108.5 278t362.5 92t363.5 -85.5t109.5 -268.5q0 -57 -8 -102.5t-29.5 -89t-56 -74t-90.5 -51.5t-131 -27q76 -8 160.5 -74t203.5 -223q103 163 103 348h204 q0 -130 -49.5 -258.5t-138.5 -239.5q59 -78 213 -317h-235q-58 99 -117 182q-135 -115 -252 -163t-295 -48q-139 0 -234.5 19.5t-162 66t-97 124.5t-30.5 194zM338 403q0 -145 64.5 -202.5t236.5 -57.5q150 0 242.5 40t199.5 145q-125 176 -224.5 261t-201.5 85 q-165 0 -241 -62.5t-76 -208.5zM424 1075q0 -126 56.5 -180.5t189.5 -54.5q138 0 207 55t69 178q0 117 -59.5 165t-202.5 48t-201.5 -47t-58.5 -164z" />
<glyph unicode="'" horiz-adv-x="376" d="M92 1427h193l-39 -481h-131z" />
<glyph unicode="(" horiz-adv-x="571" d="M139 510q0 845 430 1049l93 -150q-66 -28 -120 -88.5t-99.5 -163.5t-71 -268t-25.5 -379t25.5 -379t71 -268t99.5 -163.5t120 -88.5l-93 -150q-430 204 -430 1049z" />
<glyph unicode=")" horiz-adv-x="571" d="M-90 -389q52 22 96.5 63t85.5 113t70 169.5t46 239t17 314.5q0 213 -25.5 378t-70.5 268.5t-99 164t-120 88.5l92 150q430 -206 430 -1049t-430 -1049z" />
<glyph unicode="*" horiz-adv-x="935" d="M61 1020v158h269l-135 235l139 78l133 -234l133 234l141 -80l-137 -233h270v-158h-270l135 -234l-139 -77l-133 229l-133 -229l-139 79l133 232h-267z" />
<glyph unicode="+" horiz-adv-x="1232" d="M121 645v182h401v404h185v-404h403v-182h-403v-401h-185v401h-401z" />
<glyph unicode="," horiz-adv-x="552" d="M33 -326l162 531h243l-229 -531h-176z" />
<glyph unicode="-" horiz-adv-x="593" d="M63 479v183h467v-183h-467z" />
<glyph unicode="." horiz-adv-x="552" d="M143 129q0 77 27 100t104 23q81 0 108.5 -23t27.5 -100q0 -84 -27.5 -108.5t-108.5 -24.5q-77 0 -104 25t-27 108z" />
<glyph unicode="/" horiz-adv-x="915" d="M59 0l727 1427h215l-731 -1427h-211z" />
<glyph unicode="0" d="M117 733q0 172 21.5 297.5t61.5 208.5t105.5 132.5t145 70t188.5 20.5t188.5 -20.5t144.5 -70t105 -132.5t61 -208.5t21 -297.5q0 -218 -31.5 -366t-98 -235t-160.5 -124t-230 -37q-108 0 -188.5 23t-145 76.5t-105 141t-62 217t-21.5 304.5zM328 733q0 -141 10.5 -238.5 t32 -164.5t59.5 -104t86.5 -52.5t120.5 -15.5q74 0 124 15.5t88.5 52.5t59.5 104t31 164t10 239q0 122 -6 207.5t-22.5 148t-38.5 100t-59.5 59t-80 29t-106.5 7.5q-74 0 -121 -11.5t-86 -44t-59.5 -95t-31.5 -159t-11 -241.5z" />
<glyph unicode="1" d="M213 1227l588 256v-1483h-207v1204l-320 -145z" />
<glyph unicode="2" d="M113 0v166q198 155 317.5 250.5t216 182.5t140.5 135.5t73.5 105t35 95.5t5.5 103q0 135 -70.5 185.5t-242.5 50.5q-95 0 -202.5 -15.5t-162.5 -39.5l-47 182q214 61 426 61q271 0 394.5 -91.5t123.5 -317.5q0 -76 -9.5 -132.5t-39.5 -120.5t-78 -122t-132.5 -135 t-195.5 -162.5t-274 -202.5h723v-178h-1001z" />
<glyph unicode="3" d="M115 27l43 174q151 -45 383 -45q149 0 228.5 26t109.5 78.5t30 149.5q0 145 -71 202.5t-246 57.5h-182v174h180q159 0 228 52.5t69 174.5q0 78 -28 121t-101.5 64.5t-208.5 21.5q-95 0 -201.5 -13t-175.5 -34l-45 178q257 53 448 53q197 0 314.5 -39t167 -115.5 t49.5 -201.5q0 -73 -12.5 -127t-44.5 -102.5t-94 -77.5t-154 -37q98 -4 165.5 -33.5t103.5 -81.5t50.5 -114t14.5 -144q0 -230 -133.5 -324t-434.5 -94q-211 0 -452 56z" />
<glyph unicode="4" horiz-adv-x="1267" d="M55 391v60q116 214 293.5 496t327.5 480h299v-862h196v-174h-196v-391h-203v391h-717zM317 565h455v699q-112 -140 -242.5 -344.5t-212.5 -354.5z" />
<glyph unicode="5" d="M145 27l45 174q145 -45 361 -45q110 0 178.5 12.5t109 44.5t55.5 78.5t15 122.5q0 110 -26.5 167.5t-98 84t-209.5 26.5q-204 0 -362 -33v768h846v-178h-647v-389q102 10 200 10q197 0 311 -45.5t163 -140t49 -254.5q0 -132 -31 -220t-100.5 -141.5t-171.5 -75.5 t-254 -22q-199 0 -433 56z" />
<glyph unicode="6" d="M121 723q0 175 25 301t72.5 211t127 135t178.5 71t236 21q189 0 381 -57l-54 -184q-132 51 -327 51q-85 0 -144 -9.5t-112.5 -36.5t-86 -74t-52.5 -124t-23 -186q149 28 320 28q149 0 249 -24.5t162 -79t88.5 -136t26.5 -202.5q0 -132 -29 -219t-94 -140.5t-161 -75.5 t-240 -22q-153 0 -253 35t-167 122.5t-95 230.5t-28 364zM340 664q1 -127 15 -216.5t38.5 -146.5t65.5 -89t88.5 -44t116.5 -12q125 0 190.5 26.5t89 79t23.5 150.5q0 80 -12.5 130.5t-46.5 85t-91 49t-149 15.5q-216 0 -328 -28z" />
<glyph unicode="7" d="M162 1249v178h1052v-67q-153 -247 -337.5 -648t-290.5 -712h-238q126 343 290.5 696.5t297.5 552.5h-774z" />
<glyph unicode="8" d="M117 389q0 83 14.5 144t50 113.5t103 82t166.5 33.5q-75 7 -129.5 28t-86.5 51t-51 74t-25.5 88.5t-6.5 102.5q0 186 109.5 271t377.5 85q182 0 290 -40t153.5 -116t45.5 -200q0 -58 -6.5 -102.5t-25.5 -88.5t-51 -74t-86.5 -51t-129.5 -28q98 -4 165 -33.5t102.5 -81.5 t50 -113.5t14.5 -144.5q0 -229 -122.5 -323.5t-399.5 -94.5q-276 0 -399 94.5t-123 323.5zM336 403q0 -143 65.5 -201.5t237.5 -58.5t237.5 58.5t65.5 201.5q0 148 -69.5 209.5t-233.5 61.5t-233.5 -61.5t-69.5 -209.5zM365 1075q0 -126 64.5 -180.5t209.5 -54.5 q146 0 210 54.5t64 180.5q0 118 -60.5 165.5t-213.5 47.5t-213.5 -47.5t-60.5 -165.5z" />
<glyph unicode="9" d="M113 985q0 261 120.5 369t403.5 108q159 0 257 -21.5t162 -79t88.5 -150.5t24.5 -244q0 -121 -30.5 -238t-78.5 -212t-120.5 -192t-142 -170t-158.5 -155h-270q176 156 301 297t194 283q-126 -17 -225 -17q-296 0 -411 92.5t-115 329.5zM332 999q0 -82 12.5 -129.5 t50 -78t97 -40.5t161.5 -10q149 0 275 21q22 76 22 178q0 77 -7 132t-24.5 93t-39.5 60.5t-60.5 34.5t-79 16t-102.5 4q-93 0 -153.5 -16.5t-93.5 -54t-45.5 -86.5t-12.5 -124z" />
<glyph unicode=":" horiz-adv-x="552" d="M143 129q0 77 27 100t104 23q81 0 108.5 -23t27.5 -100q0 -84 -27.5 -108.5t-108.5 -24.5q-77 0 -104 25t-27 108zM143 922q0 77 27 99.5t104 22.5q81 0 108.5 -22.5t27.5 -99.5q0 -84 -27.5 -109t-108.5 -25q-77 0 -104 25.5t-27 108.5z" />
<glyph unicode=";" horiz-adv-x="552" d="M33 -326l162 531h243l-229 -531h-176zM143 922q0 77 27 99.5t104 22.5q81 0 108.5 -22.5t27.5 -99.5q0 -84 -27.5 -109t-108.5 -25q-77 0 -104 25.5t-27 108.5z" />
<glyph unicode="&#x3c;" horiz-adv-x="1232" d="M201 686v98l747 588l107 -133l-602 -502l602 -506l-105 -135z" />
<glyph unicode="=" horiz-adv-x="1232" d="M121 397v183h989v-183h-989zM121 883v182h989v-182h-989z" />
<glyph unicode="&#x3e;" horiz-adv-x="1232" d="M201 231l602 502l-602 504l104 137l752 -590v-98l-748 -588z" />
<glyph unicode="?" horiz-adv-x="980" d="M74 1411q61 21 165.5 36t180.5 15q261 0 376 -100.5t115 -300.5q0 -176 -81 -320.5t-261 -318.5h-215q173 170 249.5 318.5t76.5 320.5q0 109 -58.5 160t-211.5 51q-178 0 -287 -45zM328 129q0 77 27 100t104 23q81 0 109 -23t28 -100q0 -83 -28 -108t-109 -25 q-77 0 -104 25t-27 108z" />
<glyph unicode="@" horiz-adv-x="1914" d="M121 543q0 176 31.5 305t89 213.5t150.5 135.5t204 72t260 21q97 0 165 -7.5t130 -29.5t101 -60.5t69 -101t42.5 -151t12.5 -209.5q0 -116 -9.5 -199t-32.5 -143.5t-54 -97t-83.5 -58t-111.5 -29t-145 -7.5q-119 0 -195.5 15.5t-129 55t-74 105.5t-21.5 170 q0 88 15.5 148.5t43 98.5t77.5 58.5t107 27.5t144 7q162 0 283 -23q-3 153 -71.5 207.5t-248.5 54.5q-112 0 -188.5 -8.5t-142.5 -32.5t-106 -64t-68.5 -105.5t-40 -154.5t-11.5 -214q0 -122 12.5 -209.5t44 -154.5t78 -108.5t121 -67.5t166.5 -36t221 -10t222.5 12.5 t168.5 42.5t123 77t80 121t45 169.5t13 226.5q0 285 -45 412h190q43 -139 43 -418q0 -157 -21.5 -278.5t-68 -212t-113 -152t-162.5 -99.5t-211 -54.5t-264 -16.5q-150 0 -264 14.5t-210 49.5t-161.5 91.5t-111.5 140.5t-67 197.5t-21 262.5zM719 551q0 -117 48.5 -157 t186.5 -40q136 0 186 53t50 207v103q-101 16 -232 16q-75 0 -116 -5.5t-71.5 -25t-41 -54.5t-10.5 -97z" />
<glyph unicode="A" horiz-adv-x="1382" d="M2 0q247 743 528 1427h338q273 -834 527 -1427h-234q-118 298 -153 397h-662q-61 -182 -129 -397h-215zM406 575h540q-99 272 -227 680h-57q-125 -312 -256 -680z" />
<glyph unicode="B" horiz-adv-x="1433" d="M195 0v1427h727q83 0 145 -17t99.5 -46t60.5 -73.5t31 -92.5t8 -111q0 -59 -5.5 -100.5t-23 -83.5t-49 -68.5t-84.5 -46t-127 -26.5q79 -4 137 -23.5t93.5 -50.5t56.5 -78t28.5 -97t7.5 -116q0 -200 -93.5 -298.5t-268.5 -98.5h-743zM401 176h506q170 0 170 240 q0 120 -44.5 188t-133.5 68h-498v-496zM401 842h490q156 0 156 209q0 102 -34.5 151t-121.5 49h-490v-409z" />
<glyph unicode="C" horiz-adv-x="1222" d="M119 727q0 175 26.5 301t76.5 210t132 133.5t184 70t242 20.5q96 0 209 -15t195 -38l-51 -186q-59 22 -152.5 35.5t-175.5 13.5q-91 0 -151.5 -7t-116.5 -28t-89 -58t-58.5 -98.5t-35.5 -148t-10 -207.5t10.5 -208t35 -150t58.5 -102t89 -62t117 -31t151 -8 q81 0 174.5 13t153.5 34l51 -186q-82 -24 -194 -39t-210 -15q-174 0 -293.5 36.5t-204.5 123t-124 233t-39 363.5z" />
<glyph unicode="D" horiz-adv-x="1474" d="M195 0v1427h491q140 0 242.5 -20.5t186 -69.5t134.5 -130t78 -202t27 -286t-26.5 -287t-78 -205t-134 -133.5t-186.5 -72t-243 -21.5h-491zM401 178h273q133 0 216 22.5t140 83.5t80 164.5t23 268.5q0 87 -5.5 154.5t-18.5 122t-31 93.5t-47 68t-62 47t-80 28.5 t-97.5 14.5t-117.5 4h-273v-1071z" />
<glyph unicode="E" horiz-adv-x="1259" d="M195 0v1427h1005v-178h-799v-405h568v-176h-568v-490h799v-178h-1005z" />
<glyph unicode="F" horiz-adv-x="1181" d="M195 0v1427h987v-178h-781v-477h568v-176h-568v-596h-206z" />
<glyph unicode="G" horiz-adv-x="1411" d="M119 727q0 145 18.5 257t57.5 193t93.5 136t133 88t169.5 47t208 14q97 0 214.5 -15t200.5 -38l-51 -184q-58 22 -162.5 35.5t-189.5 13.5q-92 0 -154 -7t-118.5 -28.5t-90 -58.5t-59 -99t-35.5 -148.5t-10 -207.5t10.5 -208.5t35 -151t58.5 -103t88.5 -62.5t117 -31.5 t151.5 -8.5q120 0 235 26v441h-342v174h553v-776q-80 -25 -217 -39.5t-254 -14.5q-174 0 -293.5 36.5t-204.5 123t-124 233t-39 363.5z" />
<glyph unicode="H" horiz-adv-x="1484" d="M195 0v1427h206v-571h684v571h207v-1427h-207v666h-684v-666h-206z" />
<glyph unicode="I" horiz-adv-x="593" d="M195 0v1427h206v-1427h-206z" />
<glyph unicode="J" horiz-adv-x="923" d="M20 31l52 188q45 -22 111.5 -35.5t123.5 -13.5q44 0 78.5 10t67 35t50 75t17.5 122v1015h211v-1034q0 -100 -23 -176t-60.5 -122t-92.5 -74.5t-110.5 -39t-122.5 -10.5q-153 0 -302 60z" />
<glyph unicode="K" horiz-adv-x="1308" d="M195 0v1427h206v-1427h-206zM403 754q85 54 256.5 236t360.5 437h262q-199 -253 -362 -428t-234 -227q75 -46 254.5 -251t388.5 -521h-264q-218 327 -400.5 526.5t-261.5 227.5z" />
<glyph unicode="L" horiz-adv-x="1122" d="M195 0v1427h206v-1245h707v-182h-913z" />
<glyph unicode="M" horiz-adv-x="1826" d="M195 0v1427h294q252 -526 433 -993q190 495 434 993h278v-1427h-204v1163q-210 -456 -443 -1020h-160q-247 615 -432 1020v-1163h-200z" />
<glyph unicode="N" horiz-adv-x="1540" d="M195 0v1427h276q319 -486 666 -1118v1118h209v-1427h-254q-311 575 -693 1178v-1178h-204z" />
<glyph unicode="O" horiz-adv-x="1564" d="M119 723q0 174 26.5 300.5t77 211t133 135t184.5 71.5t242 21t242 -21t185 -71.5t133.5 -135t77 -211t26.5 -300.5q0 -176 -26.5 -304t-77 -214.5t-132.5 -138t-185 -73.5t-243 -22q-139 0 -241.5 22t-185 73.5t-133 138t-77 214.5t-26.5 304zM344 719q0 -118 8.5 -202.5 t30 -148.5t53 -103.5t83 -64t113.5 -33.5t150 -9q89 0 151.5 9t114 33.5t83.5 64t54 103.5t31 148.5t9 202.5q0 122 -8.5 208t-31 149.5t-54 101.5t-84 61t-114 31t-151.5 8t-150.5 -8t-113 -31t-83 -61t-52.5 -101.5t-30.5 -149.5t-8.5 -208z" />
<glyph unicode="P" horiz-adv-x="1353" d="M193 0v1427h690q401 0 401 -477q0 -91 -22 -169.5t-67 -143t-123 -102t-181 -37.5h-490v-498h-208zM401 676h443q104 0 157.5 72.5t53.5 203.5q0 145 -52 222t-151 77h-451v-575z" />
<glyph unicode="Q" horiz-adv-x="1605" d="M139 723q0 174 26.5 300.5t77 211t133.5 135t185 71.5t242 21t242 -21t184.5 -71.5t133 -135t77 -211t26.5 -300.5q0 -349 -103 -513.5t-327 -203.5q148 -28 430 -399h-254q-116 171 -227.5 263.5t-189.5 100.5q-137 1 -238.5 23t-183 74t-131.5 138.5t-76.5 214.5 t-26.5 302zM362 719q0 -118 9 -202.5t31 -148.5t53.5 -103.5t83 -64t114 -33.5t150.5 -9q89 0 151.5 9t114 33.5t83.5 64t53.5 103.5t30.5 148.5t9 202.5q0 122 -8.5 208t-31 149.5t-53.5 101.5t-84 61t-114 31t-151 8t-150.5 -8t-113.5 -31t-84 -61t-53.5 -101.5 t-31 -149.5t-8.5 -208z" />
<glyph unicode="R" horiz-adv-x="1415" d="M195 0v1427h690q399 0 399 -415q0 -79 -20 -144.5t-63.5 -120t-122.5 -86t-187 -32.5q74 -26 193 -180t296 -449h-260q-332 582 -485 582h-234v-582h-206zM401 758h443q101 0 155 62.5t54 176.5q0 124 -52 189t-149 65h-451v-493z" />
<glyph unicode="S" horiz-adv-x="1275" d="M115 1020q0 234 150 338t442 104q103 0 216 -16.5t197 -42.5l-49 -182q-55 22 -160 36.5t-204 14.5q-189 0 -279 -52t-90 -182q0 -66 27.5 -106.5t102.5 -68t208 -38.5q254 -23 369.5 -122t115.5 -297q0 -231 -150 -333t-446 -102q-107 0 -224 17t-202 45l51 180 q67 -22 171.5 -36.5t199.5 -14.5q191 0 285 51.5t94 181.5q0 50 -15 87.5t-52 69.5t-106 53t-171 30q-254 21 -367.5 107t-113.5 278z" />
<glyph unicode="T" horiz-adv-x="1204" d="M8 1249v178h1188v-178h-487v-1249h-211v1249h-490z" />
<glyph unicode="U" horiz-adv-x="1515" d="M170 463v964h211v-944q0 -97 21 -160t69.5 -99t115.5 -50t171 -14q102 0 169 13.5t116.5 49t71.5 99t22 161.5v944h209v-964q0 -119 -26 -205.5t-72.5 -141.5t-122 -87.5t-162.5 -45t-205 -12.5t-204.5 12.5t-162 45t-122 87.5t-73 141.5t-26.5 205.5z" />
<glyph unicode="V" horiz-adv-x="1318" d="M-14 1427h233q267 -641 443 -1234q207 496 436 1234h217q-236 -739 -531 -1427h-270q-113 364 -256.5 754t-271.5 673z" />
<glyph unicode="W" horiz-adv-x="1925" d="M4 1427h229q189 -562 334 -1183q228 763 312 1183h200q6 -22 18 -68q214 -797 273 -1115q200 609 332 1183h213q-188 -753 -418 -1427h-266q-78 409 -252 1098q-74 -376 -293 -1098h-264q-242 936 -418 1427z" />
<glyph unicode="X" horiz-adv-x="1353" d="M10 0q228 287 551 723q-293 392 -541 704h265q182 -234 405 -526q187 250 379 526h252q-213 -305 -504 -698q283 -383 526 -729h-258q-252 354 -397 553q-196 -261 -426 -553h-252z" />
<glyph unicode="Y" horiz-adv-x="1273" d="M-45 1427h270q221 -276 428 -585q237 311 414 585h248q-288 -423 -567 -776v-651h-209v651q-305 440 -584 776z" />
<glyph unicode="Z" horiz-adv-x="1259" d="M39 0v61q448 582 860 1188h-811v178h1129v-57q-193 -296 -430.5 -625.5t-430.5 -566.5h834v-178h-1151z" />
<glyph unicode="[" horiz-adv-x="620" d="M180 -532v2078h482v-170h-279v-1741h279v-167h-482z" />
<glyph unicode="\" horiz-adv-x="915" d="M-80 1427h217l727 -1427h-213z" />
<glyph unicode="]" horiz-adv-x="620" d="M-41 -365h279v1741h-279v170h481v-2078h-481v167z" />
<glyph unicode="^" horiz-adv-x="1026" d="M25 606l389 821h192l395 -821h-206l-287 619l-285 -619h-198z" />
<glyph unicode="_" horiz-adv-x="888" d="M63 -119h762v-182h-762v182z" />
<glyph unicode="`" horiz-adv-x="999" d="M199 1427h221l246 -264h-183z" />
<glyph unicode="a" horiz-adv-x="1128" d="M109 319q0 86 20.5 148.5t54 99.5t88.5 59t111.5 29t134.5 7q125 0 277 -31q0 84 -11.5 133.5t-45 80.5t-85.5 41.5t-141 10.5q-182 0 -307 -49l-41 168q188 51 379 51q118 0 198 -19t136 -65t81 -124t25 -195v-611q-90 -37 -213.5 -59.5t-230.5 -22.5 q-239 0 -334.5 74.5t-95.5 273.5zM317 330q0 -67 9.5 -105t38.5 -60.5t70 -29t116 -6.5q129 0 244 41v317q-95 23 -242 23q-73 0 -112.5 -5.5t-70.5 -24t-42 -54t-11 -96.5z" />
<glyph unicode="b" horiz-adv-x="1187" d="M150 51v1428h192v-488q107 76 276 76q94 0 164 -16.5t126 -54.5t90.5 -101t52.5 -156t18 -219q0 -159 -28 -265.5t-89.5 -169t-149 -88.5t-216.5 -26q-106 0 -229.5 22t-206.5 58zM342 178q101 -39 244 -39q84 0 133.5 13.5t85 55.5t48.5 115.5t13 196.5 q0 113 -13.5 183.5t-47 114t-84.5 59.5t-133 16q-104 0 -175 -32.5t-71 -88.5v-594z" />
<glyph unicode="c" horiz-adv-x="958" d="M117 524q0 156 34 263t102 168t158 86.5t214 25.5q72 0 161 -14t146 -35l-51 -172q-106 47 -248 47q-86 0 -139 -13t-94.5 -52.5t-59.5 -114t-18 -193.5q0 -113 18 -187t59 -115t96 -57t138 -16q122 0 248 52l51 -170q-58 -25 -145.5 -40.5t-161.5 -15.5q-125 0 -215 27 t-158 89.5t-101.5 171t-33.5 265.5z" />
<glyph unicode="d" horiz-adv-x="1187" d="M117 518q0 156 29 263.5t89.5 170t143 89t199.5 26.5q158 0 268 -70v482h192v-1428q-83 -36 -206.5 -58t-229.5 -22q-129 0 -216.5 25.5t-149.5 88t-90.5 168.5t-28.5 265zM322 522q0 -97 9.5 -162t28 -109t53.5 -67t78.5 -32t110.5 -9q143 0 244 37v594q0 57 -71 90 t-175 33q-108 0 -166 -32t-85 -112.5t-27 -230.5z" />
<glyph unicode="e" horiz-adv-x="1124" d="M117 524q0 152 30.5 258t93 168t148 89.5t203.5 27.5q122 0 202 -25.5t136 -91.5t80 -180q20 -98 21 -241q0 -24 -1 -50h-706q1 -104 19 -170.5t58 -103.5t94 -50.5t138 -13.5q58 0 146.5 14t148.5 35l37 -161q-80 -25 -181 -41.5t-174 -16.5q-120 0 -207.5 27 t-153.5 89.5t-99 171t-33 265.5zM326 637h512q-5 111 -30 168.5t-72.5 78.5t-135.5 21q-143 0 -202.5 -57t-71.5 -211z" />
<glyph unicode="f" horiz-adv-x="749" d="M18 866v172h179v82q0 92 21 158t53.5 104t84.5 60t102 28.5t117 6.5q123 0 238 -39l-45 -158q-86 27 -195 27q-91 0 -137.5 -40.5t-46.5 -152.5v-76h354v-172h-354v-866h-192v866h-179z" />
<glyph unicode="g" horiz-adv-x="1187" d="M117 520q0 158 28.5 264t90.5 168.5t149.5 88.5t216.5 26q105 0 229 -21.5t207 -56.5v-911q0 -116 -25 -202.5t-68.5 -142t-112 -89t-147 -47t-181.5 -13.5q-78 0 -183 18t-167 42l45 166q62 -24 149.5 -40t153.5 -16q176 0 260 64.5t84 232.5q-110 -78 -275 -78 q-119 0 -200.5 26t-140 88.5t-86 168.5t-27.5 264zM322 520q0 -151 26.5 -231t84.5 -112t167 -32q104 0 175 33t71 90v594q-104 37 -244 37q-67 0 -110.5 -8.5t-78.5 -31t-53.5 -66t-28 -109.5t-9.5 -164z" />
<glyph unicode="h" horiz-adv-x="1163" d="M147 0v1479h195v-490q48 32 128.5 55t164.5 23q103 0 171.5 -20.5t118.5 -73t72.5 -145.5t22.5 -236v-592h-195v567q0 84 -8.5 138t-33 98.5t-73 65t-124.5 20.5q-101 0 -172.5 -31.5t-71.5 -87.5v-770h-195z" />
<glyph unicode="i" horiz-adv-x="489" d="M131 1350q0 65 24 83.5t93 18.5q68 0 91 -18.5t23 -83.5q0 -71 -23.5 -93t-90.5 -22q-69 0 -93 22t-24 93zM150 0v1038h192v-1038h-192z" />
<glyph unicode="j" horiz-adv-x="489" d="M-41 -250q101 0 146 42.5t45 164.5v1081h192v-1077q0 -113 -25 -188t-77.5 -116t-118.5 -57t-162 -16v166zM131 1350q0 65 24 83.5t93 18.5q68 0 91 -18.5t23 -83.5q0 -71 -23.5 -93t-90.5 -22q-69 0 -93 22t-24 93z" />
<glyph unicode="k" horiz-adv-x="1054" d="M150 0v1479h192v-1479h-192zM342 549q111 83 444 489h236q-153 -187 -269 -311t-165 -160q46 -27 169 -174t300 -393h-236q-384 511 -479 549z" />
<glyph unicode="l" horiz-adv-x="501" d="M150 270v1209h192v-1200q0 -75 19.5 -126t70.5 -108l-164 -90q-63 64 -90.5 134.5t-27.5 180.5z" />
<glyph unicode="m" horiz-adv-x="1781" d="M150 0v981q90 38 211 62t229 24q185 0 272 -70q196 70 375 70q153 0 237.5 -43t124 -147.5t39.5 -294.5v-582h-192v557q0 104 -11 167t-41 101t-75 51t-121 13q-135 0 -244 -35q37 -109 37 -272v-582h-194v557q0 139 -21.5 208.5t-72 96.5t-150.5 27q-113 0 -211 -29 v-860h-192z" />
<glyph unicode="n" horiz-adv-x="1163" d="M150 0v981q89 38 216.5 62t237.5 24q115 0 191 -22.5t128 -78.5t74.5 -149t22.5 -235v-582h-193v557q0 105 -11.5 167t-42.5 100.5t-79 51.5t-129 13q-119 0 -223 -29v-860h-192z" />
<glyph unicode="o" horiz-adv-x="1202" d="M117 524q0 158 29 263.5t91 167t149 87t214 25.5q102 0 176.5 -16t134.5 -53t97 -99.5t56 -155t19 -219.5q0 -159 -28.5 -266t-90 -170.5t-149 -90t-215.5 -26.5q-127 0 -214.5 26.5t-149.5 90t-90.5 170.5t-28.5 266zM322 520q0 -157 26.5 -239t84 -114t167.5 -32 q82 0 133 16t85 60t47.5 117.5t13.5 191.5q0 124 -13 198t-48 115.5t-84.5 55.5t-133.5 14q-67 0 -110.5 -9t-78 -32t-53 -67t-27.5 -110t-9 -165z" />
<glyph unicode="p" horiz-adv-x="1187" d="M150 -393v1382q83 35 207 56.5t229 21.5q129 0 216.5 -25.5t149 -88t89.5 -168t28 -263.5q0 -126 -19.5 -220t-56 -157t-93.5 -102t-128 -55.5t-164 -16.5q-160 0 -266 74v-438h-192zM342 266q0 -58 70 -91.5t174 -33.5q109 0 167.5 32.5t85.5 113t27 231.5 q0 97 -9.5 162t-28 108.5t-53.5 66t-78.5 31.5t-110.5 9q-146 0 -244 -37v-592z" />
<glyph unicode="q" horiz-adv-x="1187" d="M117 520q0 158 28.5 264t90.5 168.5t149.5 88.5t216.5 26q105 0 229 -21.5t207 -56.5v-1382h-192v442q-116 -78 -279 -78q-118 0 -199.5 26.5t-139.5 89t-84.5 169t-26.5 264.5zM322 520q0 -151 26.5 -231t84.5 -112t167 -32q104 0 175 33t71 90v594q-104 37 -244 37 q-67 0 -110.5 -8.5t-78.5 -31t-53.5 -66t-28 -109.5t-9.5 -164z" />
<glyph unicode="r" horiz-adv-x="739" d="M150 0v1038h192v-75q32 44 104 74t175 30q53 0 106 -6v-189q-64 11 -121 11q-112 0 -188 -33t-76 -94v-756h-192z" />
<glyph unicode="s" horiz-adv-x="1017" d="M106 733q0 184 108 259t321 75q168 0 346 -53l-50 -164q-144 53 -301 53q-49 0 -81.5 -3t-62 -12t-46 -26t-26 -44.5t-9.5 -67.5q0 -65 51.5 -95.5t184.5 -42.5q198 -17 285 -86.5t87 -216.5q0 -187 -104 -262.5t-317 -75.5q-84 0 -192.5 15.5t-180.5 40.5l47 163 q55 -23 148 -39t173 -16q124 0 177 31.5t53 128.5q0 71 -51 105t-189 46q-191 16 -281 79t-90 208z" />
<glyph unicode="t" horiz-adv-x="827" d="M23 866v172h178v197l194 80v-277h365v-172h-365v-506q0 -117 38.5 -166t137.5 -49q102 0 187 29l37 -160q-114 -43 -256 -43q-92 0 -152 16t-103.5 57.5t-63 115.5t-19.5 188v518h-178z" />
<glyph unicode="u" horiz-adv-x="1163" d="M145 457v581h193v-557q0 -139 23.5 -208.5t76.5 -96t160 -26.5q131 0 225 30v858h193v-981q-90 -38 -218.5 -62t-236.5 -24q-115 0 -191 23t-128 79.5t-74.5 149.5t-22.5 234z" />
<glyph unicode="v" horiz-adv-x="1044" d="M25 1038h206q153 -370 289 -848q202 511 293 848h201q-128 -429 -379 -1038h-252q-189 655 -358 1038z" />
<glyph unicode="w" horiz-adv-x="1681" d="M27 1038h211q140 -366 260 -843q60 172 136.5 434.5t108.5 408.5h209q111 -327 230 -843q187 515 264 843h205q-149 -541 -355 -1038h-252q-39 191 -97.5 426t-100.5 365q-91 -386 -234 -791h-252q-163 601 -333 1038z" />
<glyph unicode="x" horiz-adv-x="1067" d="M37 0q155 177 412 518q-209 287 -410 520h244q128 -158 274 -362q90 120 248 362h221q-181 -272 -360 -512q186 -254 362 -526h-225q-89 144 -250 373q-136 -181 -293 -373h-223z" />
<glyph unicode="y" horiz-adv-x="1044" d="M25 1038h206q151 -355 289 -854q195 486 293 854h201q-135 -456 -389 -1058q-84 -204 -174 -373h-220q77 142 168 344q-182 658 -374 1087z" />
<glyph unicode="z" horiz-adv-x="1015" d="M55 0v53q162 201 333 435.5t261 377.5h-559v172h860v-51q-127 -198 -303.5 -444t-281.5 -371h577v-172h-887z" />
<glyph unicode="{" horiz-adv-x="612" d="M47 428v160q38 0 69.5 11t61 39.5t49 74t31.5 118t12 168.5q0 126 26 225.5t72 165.5t101.5 107t122.5 64l92 -152q-73 -22 -118.5 -64.5t-74 -138t-28.5 -248.5q0 -95 -12.5 -172t-31 -124t-44 -81t-47.5 -49t-45 -22q23 -7 45 -22.5t47.5 -50t44 -82.5t31 -125 t12.5 -173q0 -115 14.5 -196.5t45 -131t68.5 -77t93 -43.5l-92 -150q-68 23 -123 63.5t-101 105.5t-72 164.5t-26 225.5q0 96 -12 168.5t-31.5 118.5t-49 74.5t-61 39.5t-69.5 11v-2z" />
<glyph unicode="|" horiz-adv-x="698" d="M246 -524v2070h207v-2070h-207z" />
<glyph unicode="}" horiz-adv-x="612" d="M-72 -389q54 17 91 44t67.5 76.5t45.5 131t15 196.5q0 118 18 207t47.5 137.5t57.5 73t58 33.5q-30 9 -58 33.5t-57.5 73t-47.5 137.5t-18 207q0 116 -14.5 197.5t-45 131t-67.5 77t-92 44.5l92 148q53 -18 98.5 -46.5t87 -75t71 -107t46.5 -145.5t17 -186 q0 -96 12 -168.5t31.5 -118t49 -74t61 -39.5t69.5 -11v-158q-38 0 -69.5 -11t-61 -39.5t-49 -74.5t-31.5 -118.5t-12 -168.5q0 -125 -25.5 -224t-71.5 -164t-101 -105.5t-122 -63.5z" />
<glyph unicode="~" horiz-adv-x="1232" d="M111 729q57 97 116.5 144t143.5 47q52 0 124 -27.5t131 -60t122.5 -60t101.5 -27.5q48 0 82.5 33t64.5 113l129 -100q-38 -102 -113 -162t-175 -60q-48 0 -118 28t-129 61.5t-124.5 61.5t-104.5 28q-83 0 -135 -127z" />
<glyph unicode="&#xa2;" horiz-adv-x="946" d="M117 793q0 138 26.5 237.5t79 161.5t123.5 94t168 43v215h164v-211q134 -7 244 -47l-52 -162q-75 34 -192 41v-755q107 7 192 45l52 -160q-94 -41 -244 -53v-248h-164v250q-98 12 -169 46.5t-123.5 98t-78.5 164.5t-26 240zM311 788q0 -177 48.5 -258t154.5 -102v721 q-72 -13 -114.5 -48.5t-65.5 -111.5t-23 -201z" />
<glyph unicode="&#xa3;" horiz-adv-x="1236" d="M84 629v168h131v194q0 235 134 352t413 117q103 0 216.5 -16.5t197.5 -42.5l-50 -182q-55 23 -159.5 38t-204.5 15q-179 0 -258.5 -65.5t-79.5 -207.5v-202h397v-168h-397v-451h715v-178h-924v629h-131z" />
<glyph unicode="&#xa5;" horiz-adv-x="1273" d="M-45 1427h270q221 -276 428 -585q237 311 414 585h248q-262 -379 -484 -665h299v-158h-382v-176h382v-158h-382v-270h-209v270h-389v158h389v176h-389v158h311q-273 378 -506 665z" />
<glyph unicode="&#xa8;" horiz-adv-x="890" d="M131 1274q0 61 21 78.5t84 17.5q61 0 81.5 -17.5t20.5 -78.5q0 -67 -20.5 -87t-81.5 -20q-62 0 -83.5 20t-21.5 87zM543 1274q0 61 21 78.5t83 17.5q61 0 82 -17.5t21 -78.5q0 -67 -21 -87t-82 -20q-62 0 -83 20t-21 87z" />
<glyph unicode="&#xa9;" horiz-adv-x="1751" d="M139 723q0 145 19.5 256.5t61 193.5t100.5 137.5t143.5 89t183.5 48t227 14.5q155 0 268 -21t205 -71.5t148.5 -135t86.5 -211t30 -300.5q0 -176 -29.5 -304t-86 -214.5t-148 -138t-205.5 -73.5t-269 -22q-128 0 -227 15t-183.5 49.5t-143.5 91t-100.5 140t-61 196.5 t-19.5 260zM326 721q0 -184 28 -298.5t96.5 -181t166.5 -90.5t255 -24q106 0 182.5 10t141.5 36t106.5 68.5t70.5 109t41.5 157t12.5 213.5q0 95 -7 169t-23 133.5t-38.5 103t-57 76t-75 52.5t-97 32.5t-117 17t-140.5 4.5q-106 0 -179.5 -8.5t-138.5 -32.5t-105 -65 t-69.5 -107t-41.5 -157.5t-12 -217.5zM473 725q0 109 17.5 187.5t50.5 131t87 83t120.5 43t158.5 12.5q66 0 145 -12t130 -29l-43 -156q-80 35 -224 35q-59 0 -97 -6.5t-69 -24t-47.5 -51.5t-25 -86.5t-8.5 -130.5q0 -123 24.5 -187.5t75.5 -89t147 -24.5q122 0 224 41 l43 -152q-54 -20 -131.5 -33.5t-143.5 -13.5q-115 0 -192.5 21t-133.5 73.5t-82 142.5t-26 226z" />
<glyph unicode="&#xab;" horiz-adv-x="1294" d="M61 625l551 561l115 -119l-403 -436l403 -447l-111 -121zM567 625l551 561l113 -119l-404 -436l404 -447l-109 -121z" />
<glyph unicode="&#xad;" horiz-adv-x="593" d="M63 479v183h467v-183h-467z" />
<glyph unicode="&#xae;" horiz-adv-x="1163" d="M113 969q0 115 19 199t54.5 140t93.5 90t130 48t170 14q125 0 209 -22.5t145 -78t89 -151.5t28 -239q0 -142 -27.5 -237t-88 -152t-145.5 -81t-210 -24q-124 0 -208.5 24t-144 81t-87 152t-27.5 237zM258 969q0 -146 33 -225.5t100 -109.5t189 -30q95 0 154 15.5t99.5 57 t57 111.5t16.5 181q0 79 -7 135.5t-24.5 97.5t-41 66t-62.5 39.5t-83.5 20t-108.5 5.5q-94 0 -150 -13t-97.5 -52.5t-58 -110.5t-16.5 -188zM365 702v537h319q71 0 107 -49.5t36 -128.5q0 -89 -34.5 -127.5t-102.5 -38.5q79 -39 133 -193h-157q-16 55 -52 111.5t-61 56.5 h-49v-168h-139zM504 983h129q51 0 51 74q0 67 -51 67h-129v-141z" />
<glyph unicode="&#xb4;" horiz-adv-x="999" d="M199 1163l247 264h220l-283 -264h-184z" />
<glyph unicode="&#xb8;" horiz-adv-x="1327" d="M516 -379l41 98q61 -28 162 -28q59 0 80.5 12t21.5 49q0 41 -46.5 53.5t-174.5 4.5l74 190h86v-90q131 0 182 -33.5t51 -124.5q0 -95 -60 -131.5t-208 -36.5q-139 0 -209 37z" />
<glyph unicode="&#xbb;" horiz-adv-x="1294" d="M63 184l404 437l-404 446l111 121l553 -563l-551 -559zM569 184l402 437l-402 446l109 121l555 -563l-551 -559z" />
<glyph unicode="&#x2c6;" horiz-adv-x="1372" d="M354 1163q42 44 125 132t125 132h199l258 -264h-205q-26 28 -78 83t-78 83q-37 -43 -151 -166h-195z" />
<glyph unicode="&#x2da;" horiz-adv-x="1476" d="M504 1317q0 105 53 150.5t180 45.5q118 0 176 -47t58 -149q0 -101 -58.5 -149t-175.5 -48t-175 48t-58 149zM627 1315q0 -49 24.5 -73.5t85.5 -24.5q63 0 88 24.5t25 73.5q0 50 -25 73t-88 23q-62 0 -86 -23t-24 -73z" />
<glyph unicode="&#x2dc;" horiz-adv-x="1478" d="M293 1251q47 83 97.5 124.5t119.5 41.5q43 0 85 -19t69 -41.5t62 -41.5t67 -19q39 0 64.5 28t51.5 99l107 -84q-70 -188 -230 -188q-39 0 -79.5 19t-69 42.5t-66 42.5t-69.5 19q-67 0 -115 -115z" />
<glyph unicode="&#x401;" horiz-adv-x="1259" d="M195 0v1427h1005v-178h-799v-405h568v-176h-568v-490h799v-178h-1005zM375 1655q0 61 21 78.5t83 17.5q61 0 82 -17.5t21 -78.5q0 -67 -21 -87t-82 -20q-62 0 -83 20t-21 87zM786 1655q0 61 21 78.5t84 17.5q61 0 81.5 -17.5t20.5 -78.5q0 -67 -20.5 -87t-81.5 -20 q-62 0 -83.5 20t-21.5 87z" />
<glyph unicode="&#x402;" horiz-adv-x="1515" d="M8 1249v178h1188v-178h-487v-301q48 32 128 55t164 23q86 0 145.5 -14t110.5 -51.5t80.5 -104t45.5 -170.5t16 -252q0 -629 -348 -794l-125 139q47 22 79 43.5t70.5 69t61.5 112.5t39 174t16 252q0 111 -8 184t-24 121t-46.5 72.5t-67 33.5t-94.5 9q-97 0 -168 -31 t-75 -84v-735h-211v1249h-490z" />
<glyph unicode="&#x403;" horiz-adv-x="1122" d="M195 0v1427h923v-178h-717v-1249h-206zM479 1530l271 264h233l-324 -264h-180z" />
<glyph unicode="&#x404;" horiz-adv-x="1255" d="M119 727q0 174 27 300.5t78 210.5t134 133.5t185 70t241 20.5q98 0 213 -15.5t197 -39.5l-53 -184q-57 22 -153 35.5t-179 13.5q-98 0 -163 -9t-122.5 -34.5t-91.5 -73t-55.5 -123.5t-28.5 -188h658v-174h-660q3 -107 15.5 -186t38.5 -136t61 -93t89 -56.5t114.5 -28.5 t144.5 -8q80 0 176.5 14t155.5 35l53 -186q-84 -23 -199 -38.5t-211 -15.5q-173 0 -293 36.5t-206 123t-126 233t-40 363.5z" />
<glyph unicode="&#x405;" horiz-adv-x="1275" d="M115 1020q0 234 150 338t442 104q103 0 216 -16.5t197 -42.5l-49 -182q-55 22 -160 36.5t-204 14.5q-189 0 -279 -52t-90 -182q0 -66 27.5 -106.5t102.5 -68t208 -38.5q254 -23 369.5 -122t115.5 -297q0 -231 -150 -333t-446 -102q-107 0 -224 17t-202 45l51 180 q67 -22 171.5 -36.5t199.5 -14.5q191 0 285 51.5t94 181.5q0 50 -15 87.5t-52 69.5t-106 53t-171 30q-254 21 -367.5 107t-113.5 278z" />
<glyph unicode="&#x406;" horiz-adv-x="593" d="M195 0v1427h206v-1427h-206z" />
<glyph unicode="&#x407;" horiz-adv-x="593" d="M-12 1655q0 61 21 78.5t83 17.5q61 0 82 -17.5t21 -78.5q0 -67 -21 -87t-82 -20q-62 0 -83 20t-21 87zM195 0v1427h206v-1427h-206zM399 1655q0 61 21 78.5t84 17.5q61 0 81.5 -17.5t20.5 -78.5q0 -67 -20.5 -87t-81.5 -20q-62 0 -83.5 20t-21.5 87z" />
<glyph unicode="&#x408;" horiz-adv-x="923" d="M20 31l52 188q45 -22 111.5 -35.5t123.5 -13.5q44 0 78.5 10t67 35t50 75t17.5 122v1015h211v-1034q0 -100 -23 -176t-60.5 -122t-92.5 -74.5t-110.5 -39t-122.5 -10.5q-153 0 -302 60z" />
<glyph unicode="&#x409;" horiz-adv-x="2140" d="M74 0q260 793 288 1427h861v-557h458q106 0 181.5 -32.5t118.5 -93t62 -137.5t19 -177q0 -209 -91.5 -319.5t-272.5 -110.5h-682v1243h-461q-21 -290 -89 -621t-169 -622h-223zM1223 176h436q94 0 136 65.5t42 190.5q0 126 -46 197t-138 71h-430v-524z" />
<glyph unicode="&#x40a;" horiz-adv-x="2148" d="M195 0v1427h206v-561h623v561h207v-561h459q106 0 181.5 -32t118.5 -92.5t62 -137t19 -176.5q0 -209 -92 -318.5t-273 -109.5h-682v694h-623v-694h-206zM1231 176h436q95 0 136.5 64.5t41.5 189.5q0 126 -46 195t-138 69h-430v-518z" />
<glyph unicode="&#x40b;" horiz-adv-x="1529" d="M8 1249v178h1188v-178h-487v-301q48 32 128 55t164 23q103 0 171.5 -20.5t118.5 -73t72.5 -145.5t22.5 -236v-551h-194v526q0 101 -12.5 164.5t-43.5 99t-73.5 48t-110.5 12.5q-97 0 -168 -31t-75 -84v-735h-211v1249h-490z" />
<glyph unicode="&#x40c;" horiz-adv-x="1310" d="M195 0v1427h206v-690q106 89 279.5 278.5t339.5 411.5h262q-203 -257 -356.5 -425t-220.5 -218q65 -19 108.5 -39.5t104 -71.5t115 -130.5t126 -215.5t152.5 -327h-248q-58 142 -109 246t-102.5 179.5t-99.5 123.5t-105.5 78t-113.5 43.5t-132 19.5v-690h-206zM559 1530 l270 264h234l-324 -264h-180z" />
<glyph unicode="&#x40e;" horiz-adv-x="1110" d="M-20 1427h243q105 -189 212 -418t179 -429q272 549 375 847h230q-139 -354 -336 -749t-375 -678q-172 0 -258 -2q109 141 231 354q-11 33 -14 41q-72 206 -219.5 520.5t-267.5 513.5zM340 1784h141q0 -76 35.5 -103.5t114.5 -27.5q43 0 67 8q42 9 62 37.5t20 85.5h135 q0 -138 -72 -204.5t-216 -66.5q-287 0 -287 271z" />
<glyph unicode="&#x40f;" horiz-adv-x="1484" d="M197 0v1427h209v-1245h684v1245h206v-1427h-432l-43 -381h-143l-43 381h-438z" />
<glyph unicode="&#x410;" horiz-adv-x="1382" d="M2 0q247 743 528 1427h338q273 -834 527 -1427h-234q-118 298 -153 397h-662q-61 -182 -129 -397h-215zM406 575h540q-99 272 -227 680h-57q-125 -312 -256 -680z" />
<glyph unicode="&#x411;" horiz-adv-x="1433" d="M195 0v1427h968v-178h-762v-407h521q204 0 291 -109t87 -319q0 -414 -362 -414h-743zM401 176h506q170 0 170 240q0 120 -44.5 188t-133.5 68h-498v-496z" />
<glyph unicode="&#x412;" horiz-adv-x="1433" d="M195 0v1427h727q83 0 145 -17t99.5 -46t60.5 -73.5t31 -92.5t8 -111q0 -59 -5.5 -100.5t-23 -83.5t-49 -68.5t-84.5 -46t-127 -26.5q79 -4 137 -23.5t93.5 -50.5t56.5 -78t28.5 -97t7.5 -116q0 -200 -93.5 -298.5t-268.5 -98.5h-743zM401 176h506q170 0 170 240 q0 120 -44.5 188t-133.5 68h-498v-496zM401 842h490q156 0 156 209q0 102 -34.5 151t-121.5 49h-490v-409z" />
<glyph unicode="&#x413;" horiz-adv-x="1103" d="M195 0v1427h923v-178h-717v-1249h-206z" />
<glyph unicode="&#x414;" horiz-adv-x="1603" d="M4 182h217q200 507 230 1245h892v-1245h261l-43 -497h-181v315h-1151v-315h-182zM455 182h684v1067h-496q-46 -648 -188 -1067z" />
<glyph unicode="&#x415;" horiz-adv-x="1259" d="M195 0v1427h1005v-178h-799v-405h568v-176h-568v-490h799v-178h-1005z" />
<glyph unicode="&#x416;" horiz-adv-x="1849" d="M0 0q73 191 137.5 327t113.5 215.5t103.5 130.5t94 71.5t98.5 39.5q-61 50 -199.5 218t-320.5 425h247q146 -215 296 -399.5t249 -279.5v679h209v-679q96 91 247 276t300 403h248q-182 -257 -320.5 -425t-199.5 -218q59 -19 98.5 -39.5t93.5 -71.5t103 -130.5 t113.5 -215.5t137.5 -327h-235q-77 211 -142 342t-135 207t-139.5 105.5t-169.5 37.5v-692h-209v692q-80 -7 -138 -27t-116 -64.5t-109 -121.5t-105 -193.5t-115 -285.5h-236z" />
<glyph unicode="&#x417;" horiz-adv-x="1308" d="M115 27l43 178q73 -23 187.5 -36t215.5 -13q220 0 304.5 56.5t84.5 197.5q0 145 -73 202.5t-248 57.5h-219v174h217q165 0 229 51t64 176q0 79 -28.5 121.5t-106.5 64t-224 21.5q-97 0 -210 -13t-179 -34l-45 178q252 53 461 53q203 0 324.5 -39t174 -115.5t52.5 -201.5 q0 -58 -6.5 -102.5t-25 -88.5t-51 -74t-86.5 -51t-128 -28q98 -4 165.5 -33.5t103.5 -81.5t50.5 -114t14.5 -144q0 -228 -142 -323t-446 -95q-106 0 -240 16.5t-233 39.5z" />
<glyph unicode="&#x418;" horiz-adv-x="1540" d="M195 0v1427h204v-1173q385 599 695 1173h252v-1427h-205v1122q-349 -636 -670 -1122h-276z" />
<glyph unicode="&#x419;" horiz-adv-x="1540" d="M195 0v1427h204v-1173q385 599 695 1173h252v-1427h-205v1122q-349 -636 -670 -1122h-276zM485 1784h144q0 -76 34.5 -102.5t114.5 -26.5q78 0 114 27t36 102h135q0 -271 -289 -271t-289 271z" />
<glyph unicode="&#x41a;" horiz-adv-x="1310" d="M195 0v1427h206v-690q106 89 279.5 278.5t339.5 411.5h262q-203 -257 -356.5 -425t-220.5 -218q65 -19 108.5 -39.5t104 -71.5t115 -130.5t126 -215.5t152.5 -327h-248q-58 142 -109 246t-102.5 179.5t-99.5 123.5t-105.5 78t-113.5 43.5t-132 19.5v-690h-206z" />
<glyph unicode="&#x41b;" horiz-adv-x="1476" d="M74 0q260 793 288 1427h922v-1427h-207v1249h-522q-21 -291 -89 -625t-169 -624h-223z" />
<glyph unicode="&#x41c;" horiz-adv-x="1826" d="M195 0v1427h294q252 -526 433 -993q190 495 434 993h278v-1427h-204v1163q-210 -456 -443 -1020h-160q-247 615 -432 1020v-1163h-200z" />
<glyph unicode="&#x41d;" horiz-adv-x="1484" d="M195 0v1427h206v-571h684v571h207v-1427h-207v666h-684v-666h-206z" />
<glyph unicode="&#x41e;" horiz-adv-x="1564" d="M119 723q0 174 26.5 300.5t77 211t133 135t184.5 71.5t242 21t242 -21t185 -71.5t133.5 -135t77 -211t26.5 -300.5q0 -176 -26.5 -304t-77 -214.5t-132.5 -138t-185 -73.5t-243 -22q-139 0 -241.5 22t-185 73.5t-133 138t-77 214.5t-26.5 304zM344 719q0 -118 8.5 -202.5 t30 -148.5t53 -103.5t83 -64t113.5 -33.5t150 -9q89 0 151.5 9t114 33.5t83.5 64t54 103.5t31 148.5t9 202.5q0 122 -8.5 208t-31 149.5t-54 101.5t-84 61t-114 31t-151.5 8t-150.5 -8t-113 -31t-83 -61t-52.5 -101.5t-30.5 -149.5t-8.5 -208z" />
<glyph unicode="&#x41f;" horiz-adv-x="1484" d="M195 0v1427h1097v-1427h-207v1249h-684v-1249h-206z" />
<glyph unicode="&#x420;" horiz-adv-x="1353" d="M193 0v1427h690q401 0 401 -477q0 -91 -22 -169.5t-67 -143t-123 -102t-181 -37.5h-490v-498h-208zM401 676h443q104 0 157.5 72.5t53.5 203.5q0 145 -52 222t-151 77h-451v-575z" />
<glyph unicode="&#x421;" horiz-adv-x="1222" d="M119 727q0 175 26.5 301t76.5 210t132 133.5t184 70t242 20.5q96 0 209 -15t195 -38l-51 -186q-59 22 -152.5 35.5t-175.5 13.5q-91 0 -151.5 -7t-116.5 -28t-89 -58t-58.5 -98.5t-35.5 -148t-10 -207.5t10.5 -208t35 -150t58.5 -102t89 -62t117 -31t151 -8 q81 0 174.5 13t153.5 34l51 -186q-82 -24 -194 -39t-210 -15q-174 0 -293.5 36.5t-204.5 123t-124 233t-39 363.5z" />
<glyph unicode="&#x422;" horiz-adv-x="1204" d="M8 1249v178h1188v-178h-487v-1249h-211v1249h-490z" />
<glyph unicode="&#x423;" horiz-adv-x="1198" d="M-20 1427h243q103 -183 210.5 -413.5t180.5 -433.5q275 552 375 847h230q-139 -354 -336 -749t-375 -678h-256q124 164 231 354q-67 203 -221.5 533.5t-281.5 539.5z" />
<glyph unicode="&#x424;" horiz-adv-x="1576" d="M78 717q0 132 26.5 222t93 156.5t181 99.5t287.5 40v192h208v-192q177 -7 294 -40t185 -99t96 -156t28 -223q0 -132 -28 -223t-96.5 -157t-185.5 -99.5t-293 -40.5v-197h-208v197q-173 7 -287.5 40.5t-181 100.5t-93 157t-26.5 222zM285 715q0 -95 13 -152t53.5 -102 t116 -66t198.5 -26v692q-83 -3 -143 -12.5t-102.5 -29.5t-69 -45t-41 -65.5t-20 -85t-5.5 -108.5zM874 369q103 4 172.5 19t113.5 39.5t67.5 68t32 93.5t8.5 126q0 65 -5.5 109.5t-21 85.5t-42.5 66t-71 45t-106 29t-148 11v-692z" />
<glyph unicode="&#x425;" horiz-adv-x="1353" d="M10 0q228 287 551 723q-293 392 -541 704h265q182 -234 405 -526q187 250 379 526h252q-213 -305 -504 -698q283 -383 526 -729h-258q-252 354 -397 553q-196 -261 -426 -553h-252z" />
<glyph unicode="&#x426;" horiz-adv-x="1550" d="M195 0v1427h206v-1245h684v1245h207v-1245h258l-41 -497h-182v315h-1132z" />
<glyph unicode="&#x427;" horiz-adv-x="1298" d="M25 895v532h208v-509q0 -100 18.5 -163t63 -97.5t104 -47t156.5 -12.5q139 0 230.5 37t91.5 102v690h207v-1427h-207v479q-45 -31 -143 -53.5t-207 -22.5q-101 0 -176 11.5t-143 43.5t-110.5 86t-67.5 142t-25 209z" />
<glyph unicode="&#x428;" horiz-adv-x="1925" d="M195 0v1427h206v-1245h457v1245h209v-1245h457v1245h207v-1427h-1536z" />
<glyph unicode="&#x429;" horiz-adv-x="1988" d="M195 0v1427h206v-1245h457v1245h209v-1245h457v1245h207v-1245h258l-43 -497h-181v315h-1570z" />
<glyph unicode="&#x42a;" horiz-adv-x="1433" d="M33 1249v178h422v-555h518q107 0 182.5 -32.5t118 -94t61.5 -138.5t19 -177q0 -203 -90.5 -316.5t-272.5 -113.5h-745v1249h-213zM455 174h497q93 0 134.5 66t41.5 192q0 127 -45.5 196.5t-138.5 69.5h-489v-524z" />
<glyph unicode="&#x42b;" horiz-adv-x="1847" d="M193 0v1427h208v-555h519q107 0 182.5 -32.5t118 -94t61 -138.5t18.5 -177q0 -209 -91 -319.5t-271 -110.5h-745zM401 174h498q93 0 134.5 66t41.5 192q0 127 -45.5 196.5t-138.5 69.5h-490v-524zM1444 0v1427h209v-1427h-209z" />
<glyph unicode="&#x42c;" horiz-adv-x="1380" d="M193 0v1427h208v-555h519q107 0 182.5 -32.5t118 -94t61 -138.5t18.5 -177q0 -209 -91 -319.5t-271 -110.5h-745zM401 174h498q93 0 134.5 66t41.5 192q0 127 -45.5 196.5t-138.5 69.5h-490v-524z" />
<glyph unicode="&#x42d;" horiz-adv-x="1255" d="M59 25l54 186q59 -21 155 -35t176 -14q84 0 144.5 8t114.5 28.5t89 56.5t61 93t38.5 136t15.5 186h-659v174h657q-7 112 -28.5 188t-55.5 123.5t-91.5 73t-122.5 34.5t-163 9q-83 0 -178.5 -13.5t-152.5 -35.5l-54 184q82 24 197 39.5t213 15.5q116 0 205 -14t165.5 -47 t130 -88t91.5 -136t56 -193t18 -257q0 -174 -27 -302t-78.5 -215.5t-134 -140t-185.5 -75.5t-241 -23q-96 0 -211 15.5t-199 38.5z" />
<glyph unicode="&#x42e;" horiz-adv-x="1933" d="M195 0v1427h206v-571h357q7 141 34 245.5t69.5 173.5t107 110.5t141 59t176.5 17.5q109 0 189.5 -20.5t146.5 -70t107.5 -132.5t63.5 -208.5t22 -297.5q0 -175 -22 -304.5t-63 -217t-107 -141t-147.5 -76.5t-189.5 -23q-130 0 -223 34t-162 113.5t-105 215t-40 332.5 h-355v-666h-206zM969 733q0 -176 16 -286.5t55.5 -175.5t96 -89t147.5 -24q92 0 149.5 24t96 89.5t54 175t15.5 286.5q0 145 -11 241.5t-31.5 159t-60.5 95t-88 44t-124 11.5q-75 0 -122.5 -11.5t-87.5 -44t-61 -95t-32.5 -159t-11.5 -241.5z" />
<glyph unicode="&#x42f;" horiz-adv-x="1415" d="M61 0q60 157 108.5 263.5t90 175.5t85 109t83 58.5t94.5 28.5q-108 1 -186.5 31.5t-122.5 84t-64 118t-20 143.5q0 89 20 160.5t64 130.5t124.5 91.5t192.5 32.5h691v-1427h-209v582h-248q-58 0 -100.5 -11.5t-89.5 -46.5t-88 -98.5t-86.5 -169t-94.5 -256.5h-244z M360 997q0 -115 54.5 -177t156.5 -62h441v493h-449q-97 0 -150 -65t-53 -189z" />
<glyph unicode="&#x430;" horiz-adv-x="1128" d="M109 319q0 86 20.5 148.5t54 99.5t88.5 59t111.5 29t134.5 7q125 0 277 -31q0 67 -8 111t-26 75.5t-52 47.5t-80 23t-117 7q-187 0 -307 -47l-41 168q188 51 379 51q118 0 198 -19t136 -65t81 -124t25 -195v-611q-90 -37 -213.5 -59.5t-230.5 -22.5q-239 0 -334.5 74.5 t-95.5 273.5zM317 330q0 -67 9.5 -105t38.5 -60.5t70 -29t116 -6.5q129 0 244 41v317q-95 23 -242 23q-73 0 -112.5 -5.5t-70.5 -24t-42 -54t-11 -96.5z" />
<glyph unicode="&#x431;" horiz-adv-x="1165" d="M119 588q0 145 9.5 256t26.5 195t47.5 144t67 100t91 65t112 37.5t137.5 19.5q244 21 379 80v-176q-120 -55 -373 -78q-59 -5 -102 -16t-74 -32t-51 -45t-34 -64.5t-22 -80.5t-16 -102q92 133 304 133q109 0 185.5 -25t132.5 -84t83 -162t27 -255t-28.5 -254 t-90.5 -162.5t-150 -85.5t-217 -25q-113 0 -192 29t-137.5 98.5t-86.5 190.5t-28 299zM322 498q0 -194 59.5 -276.5t185.5 -82.5q66 0 108.5 8t77.5 29.5t53.5 63t28 104t9.5 156.5q0 142 -25.5 218t-78 105t-148.5 29q-68 0 -113.5 -11t-77 -34.5t-48.5 -67t-24 -100 t-7 -141.5z" />
<glyph unicode="&#x432;" horiz-adv-x="1157" d="M150 0v1038h585q84 0 141.5 -18t87.5 -53t42 -77t12 -99q0 -54 -8.5 -91t-31.5 -69.5t-67.5 -50.5t-113.5 -23q138 -6 192.5 -76t54.5 -192q0 -289 -294 -289h-600zM342 160h360q74 0 105 34t31 113q0 168 -142 168h-354v-315zM342 625h346q70 0 98.5 33.5t28.5 99.5 q0 68 -27 94.5t-100 26.5h-346v-254z" />
<glyph unicode="&#x433;" horiz-adv-x="843" d="M150 0v1038h690v-172h-498v-866h-192z" />
<glyph unicode="&#x434;" horiz-adv-x="1259" d="M12 172h178q135 448 156 866h703v-866h194l-45 -448h-154v276h-833v-276h-152zM393 172h463v694h-330q-25 -297 -133 -694z" />
<glyph unicode="&#x435;" horiz-adv-x="1124" d="M117 524q0 152 30.5 258t93 168t148 89.5t203.5 27.5q122 0 202 -25.5t136.5 -91t80 -180t19.5 -291.5h-706q1 -104 19 -170.5t58 -103.5t94 -50.5t138 -13.5q58 0 146.5 14t148.5 35l37 -161q-80 -25 -181 -41.5t-174 -16.5q-120 0 -207.5 27t-153.5 89.5t-99 171 t-33 265.5zM326 637h512q-5 111 -30 168.5t-72.5 78.5t-135.5 21q-143 0 -202.5 -57t-71.5 -211z" />
<glyph unicode="&#x436;" horiz-adv-x="1511" d="M2 0q66 135 123 233.5t96 153.5t81 92.5t66 51.5t62 30q-97 76 -401 477h227q267 -351 403 -493v493h193v-493q156 167 401 493h228q-142 -190 -249.5 -316t-152.5 -161q38 -17 62 -30.5t66.5 -51.5t81.5 -92.5t96.5 -153t123.5 -233.5h-223q-66 137 -127.5 232.5 t-115.5 148t-98 77.5t-93 36v-494h-193v494q-50 -11 -94.5 -36t-98.5 -77.5t-114.5 -148t-126.5 -232.5h-223z" />
<glyph unicode="&#x437;" horiz-adv-x="1040" d="M74 12l45 174q122 -45 313 -45q168 0 228.5 37t60.5 135q0 91 -62 128.5t-208 37.5h-156v154h156q135 0 190 28.5t55 104.5q0 73 -56.5 103t-207.5 30q-174 0 -305 -43l-43 170q154 41 350 41q252 0 357.5 -61t105.5 -199q0 -55 -10.5 -95.5t-37 -75.5t-77 -56 t-125.5 -27q153 -7 216 -79t63 -195q0 -172 -116 -240t-376 -68q-211 0 -360 41z" />
<glyph unicode="&#x438;" horiz-adv-x="1175" d="M147 0v1038h195v-753q220 284 492 753h192v-1038h-192v725q-190 -335 -492 -725h-195z" />
<glyph unicode="&#x439;" horiz-adv-x="1175" d="M147 0v1038h195v-753q220 284 492 753h192v-1038h-192v725q-190 -335 -492 -725h-195zM301 1427h143q0 -76 35.5 -103.5t114.5 -27.5q72 0 112 28t37 103h136q0 -138 -72.5 -204t-216.5 -66q-289 0 -289 270z" />
<glyph unicode="&#x43a;" horiz-adv-x="1054" d="M150 0v1038h192v-499q130 124 444 499h236q-330 -404 -428 -473q33 -13 56 -25t56 -36.5t65.5 -62.5t74.5 -96t93 -144.5t112 -200.5h-230q-73 140 -140 236.5t-126.5 148.5t-107.5 76t-105 35v-496h-192z" />
<glyph unicode="&#x43b;" horiz-adv-x="1122" d="M74 0q171 513 196 1038h705v-1038h-195v866h-325q-18 -207 -65.5 -440.5t-108.5 -425.5h-207z" />
<glyph unicode="&#x43c;" horiz-adv-x="1472" d="M150 0v1038h294q158 -332 301 -694q136 358 293 694h285v-1038h-190v838q-181 -384 -320 -770h-160q-158 427 -311 770v-838h-192z" />
<glyph unicode="&#x43d;" horiz-adv-x="1169" d="M147 0v1038h195v-399h483v399h195v-1038h-195v473h-483v-473h-195z" />
<glyph unicode="&#x43e;" horiz-adv-x="1202" d="M117 524q0 158 29 263.5t91 167t149 87t214 25.5q102 0 176.5 -16t134.5 -53t97 -99.5t56 -155t19 -219.5q0 -159 -28.5 -266t-90 -170.5t-149 -90t-215.5 -26.5q-127 0 -214.5 26.5t-149.5 90t-90.5 170.5t-28.5 266zM322 520q0 -157 26.5 -238.5t84 -113t167.5 -31.5 q83 0 133.5 16t84.5 59.5t47.5 116.5t13.5 191q0 124 -13 197.5t-48 115t-84.5 55t-133.5 13.5q-67 0 -110.5 -8.5t-78 -31.5t-53 -66.5t-27.5 -109.5t-9 -165z" />
<glyph unicode="&#x43f;" horiz-adv-x="1169" d="M150 0v1038h870v-1038h-193v866h-485v-866h-192z" />
<glyph unicode="&#x440;" horiz-adv-x="1187" d="M150 -393v1382q83 35 207 56.5t229 21.5q129 0 216.5 -25.5t149 -88t89.5 -168t28 -263.5q0 -126 -19.5 -220t-56 -157t-93.5 -102t-128 -55.5t-164 -16.5q-160 0 -266 74v-438h-192zM342 266q0 -58 70 -91.5t174 -33.5q109 0 167.5 32.5t85.5 113t27 231.5 q0 97 -9.5 162t-28 108.5t-53.5 66t-78.5 31.5t-110.5 9q-146 0 -244 -37v-592z" />
<glyph unicode="&#x441;" horiz-adv-x="958" d="M117 524q0 156 34 263t102 168t158 86.5t214 25.5q72 0 161 -14t146 -35l-51 -172q-106 47 -248 47q-86 0 -139 -13t-94.5 -52.5t-59.5 -114t-18 -193.5q0 -113 18 -187t59 -115t96 -57t138 -16q122 0 248 52l51 -170q-58 -25 -145.5 -40.5t-161.5 -15.5q-125 0 -215 27 t-158 89.5t-101.5 171t-33.5 265.5z" />
<glyph unicode="&#x442;" horiz-adv-x="989" d="M14 866v172h959v-172h-381v-866h-195v866h-383z" />
<glyph unicode="&#x443;" horiz-adv-x="1044" d="M25 1038h206q151 -355 289 -854q195 486 293 854h201q-135 -456 -389 -1058q-84 -204 -174 -373h-220q77 142 168 344q-182 658 -374 1087z" />
<glyph unicode="&#x444;" horiz-adv-x="1726" d="M117 522q0 158 26.5 264t83.5 168t137 87.5t197 25.5q83 0 205 -29v402h195v-402q122 29 204 29q117 0 197 -25.5t137.5 -87.5t84 -168t26.5 -264q0 -126 -18 -220t-51.5 -157t-86 -102t-116.5 -55.5t-148 -16.5q-131 0 -229 74v-438h-195v438q-98 -74 -229 -74 q-105 0 -179.5 27t-130 89t-83 170t-27.5 265zM315 518q0 -149 26 -231.5t77 -114t141 -31.5q92 0 149.5 33t57.5 92v594q-92 35 -205 35q-56 0 -93.5 -8.5t-68.5 -32t-48.5 -66t-26.5 -108.5t-9 -162zM961 260q3 -56 60 -87.5t146 -31.5q90 0 141 31.5t77 114t26 231.5 q0 96 -9 162t-26.5 108.5t-48.5 66t-68.5 32t-93.5 8.5q-112 0 -204 -35v-600z" />
<glyph unicode="&#x445;" horiz-adv-x="1067" d="M37 0q155 177 412 518q-209 287 -410 520h244q128 -158 274 -362q90 120 248 362h221q-181 -272 -360 -512q186 -254 362 -526h-225q-89 144 -250 373q-136 -181 -293 -373h-223z" />
<glyph unicode="&#x446;" horiz-adv-x="1245" d="M150 0v1038h192v-866h485v866h193v-866h211l-47 -448h-152v276h-882z" />
<glyph unicode="&#x447;" horiz-adv-x="1107" d="M88 803v235h193v-211q0 -100 13 -163t44 -98t73.5 -47.5t110.5 -12.5q100 0 172 31.5t72 87.5v413h192v-1038h-192v406q-48 -32 -129.5 -55t-165.5 -23q-103 0 -171 20.5t-118 73t-72 145.5t-22 236z" />
<glyph unicode="&#x448;" horiz-adv-x="1683" d="M150 0v1038h192v-866h403v866h193v-866h403v866h195v-1038h-1386z" />
<glyph unicode="&#x449;" horiz-adv-x="1761" d="M147 0v1038h195v-866h403v866h193v-866h403v866h193v-866h211l-47 -446h-152v274h-1399z" />
<glyph unicode="&#x44a;" horiz-adv-x="1234" d="M4 866v172h422v-395h383q163 0 241 -78t78 -237q0 -173 -76.5 -250.5t-242.5 -77.5h-576v866h-229zM426 156h352q76 0 110 39t34 131q0 88 -35 124.5t-111 36.5h-350v-331z" />
<glyph unicode="&#x44b;" horiz-adv-x="1513" d="M147 0v1038h195v-395h383q163 0 241 -78t78 -237q0 -173 -76.5 -250.5t-242.5 -77.5h-578zM342 156h352q76 0 110 39t34 131q0 87 -35 123t-111 36h-350v-329zM1169 0v1038h195v-1038h-195z" />
<glyph unicode="&#x44c;" horiz-adv-x="1150" d="M147 0v1038h195v-395h383q163 0 241 -78t78 -237q0 -173 -76.5 -250.5t-242.5 -77.5h-578zM342 156h352q76 0 110 39t34 131q0 87 -35 123t-111 36h-350v-329z" />
<glyph unicode="&#x44d;" horiz-adv-x="989" d="M57 27l52 161q110 -47 247 -47q78 0 131.5 14.5t94 52t60.5 103.5t24 166h-449v160h445q-8 80 -31 132t-64 79.5t-90 38t-121 10.5q-146 0 -247 -43l-52 164q57 21 146.5 35t161.5 14q97 0 172.5 -15.5t139.5 -53.5t105.5 -99.5t64.5 -155.5t23 -219q0 -157 -34 -266 t-102 -171t-157.5 -89t-211.5 -27q-74 0 -162 15.5t-146 40.5z" />
<glyph unicode="&#x44e;" horiz-adv-x="1695" d="M150 0v1038h192v-397h305q10 122 44 205.5t94 131.5t138 68.5t187 20.5q121 0 205 -25.5t145.5 -87t90 -167.5t28.5 -263q0 -158 -28.5 -265.5t-89.5 -171t-145 -90t-206 -26.5q-116 0 -197.5 24.5t-141.5 82t-91 155t-35 240.5h-303v-473h-192zM844 520 q0 -156 26.5 -239t81.5 -114.5t158 -31.5t158 31.5t81.5 114.5t26.5 239q0 99 -9.5 165.5t-27 110t-51 66.5t-74.5 32t-104 9t-104 -9t-74.5 -32t-51 -66.5t-27 -110t-9.5 -165.5z" />
<glyph unicode="&#x44f;" horiz-adv-x="1171" d="M63 0q82 185 142.5 282t109 132t115.5 45q-157 3 -228 79t-71 197q0 65 16.5 117t52.5 95.5t102 67t157 23.5h563v-1038h-195v403h-174q-60 0 -101.5 -14t-85.5 -57.5t-86.5 -122.5t-96.5 -209h-220zM340 721q0 -82 38.5 -121t119.5 -39h329v313h-335q-79 0 -115.5 -34 t-36.5 -119z" />
<glyph unicode="&#x451;" horiz-adv-x="1124" d="M117 524q0 152 30.5 258t93 168t148 89.5t203.5 27.5q122 0 202 -25.5t136.5 -91t80 -180t19.5 -291.5h-706q1 -104 19 -170.5t58 -103.5t94 -50.5t138 -13.5q58 0 146.5 14t148.5 35l37 -161q-80 -25 -181 -41.5t-174 -16.5q-120 0 -207.5 27t-153.5 89.5t-99 171 t-33 265.5zM283 1274q0 61 21 78.5t83 17.5q61 0 81.5 -17.5t20.5 -78.5q0 -67 -20.5 -87t-81.5 -20q-62 0 -83 20t-21 87zM326 637h512q-5 111 -30 168.5t-72.5 78.5t-135.5 21q-143 0 -202.5 -57t-71.5 -211zM694 1274q0 61 21 78.5t84 17.5q61 0 81.5 -17.5t20.5 -78.5 q0 -67 -20.5 -87t-81.5 -20q-62 0 -83.5 20t-21.5 87z" />
<glyph unicode="&#x452;" horiz-adv-x="1150" d="M31 1204v142h119v133h192v-133h229v-142h-229v-225q48 32 129 55t166 23t144.5 -14.5t109.5 -53t79.5 -106t45.5 -172t16 -252.5q0 -156 -22 -285.5t-56 -216t-82 -153.5t-93 -103.5t-95 -60.5l-123 139q45 21 78 46t70.5 75.5t61.5 119.5t40 180.5t16 254.5 q0 111 -8.5 184t-24 120t-46.5 71.5t-67.5 33t-94.5 8.5q-98 0 -169 -29.5t-75 -82.5v-760h-192v1204h-119z" />
<glyph unicode="&#x453;" horiz-adv-x="843" d="M150 0v1038h690v-170h-498v-868h-192zM348 1163l248 264h219l-283 -264h-184z" />
<glyph unicode="&#x454;" horiz-adv-x="989" d="M117 524q0 125 23 219t65 155.5t106 99.5t139.5 53.5t172.5 15.5q73 0 162 -14t145 -35l-49 -164q-104 43 -250 43q-72 0 -120.5 -10.5t-89 -38t-63 -79.5t-30.5 -132h444v-160h-448q3 -100 22.5 -166t60 -103.5t93.5 -52t131 -14.5q137 0 250 47l49 -161 q-58 -25 -144.5 -40.5t-160.5 -15.5q-122 0 -212 27t-158.5 89t-103 171t-34.5 266z" />
<glyph unicode="&#x455;" horiz-adv-x="1017" d="M106 733q0 184 108 259t321 75q168 0 346 -53l-50 -164q-144 53 -301 53q-49 0 -81.5 -3t-62 -12t-46 -26t-26 -44.5t-9.5 -67.5q0 -65 51.5 -95.5t184.5 -42.5q198 -17 285 -86.5t87 -216.5q0 -187 -104 -262.5t-317 -75.5q-84 0 -192.5 15.5t-180.5 40.5l47 163 q55 -23 148 -39t173 -16q124 0 177 31.5t53 128.5q0 71 -51 105t-189 46q-191 16 -281 79t-90 208z" />
<glyph unicode="&#x456;" horiz-adv-x="489" d="M131 1350q0 65 24 83.5t93 18.5q68 0 91 -18.5t23 -83.5q0 -71 -23.5 -93t-90.5 -22q-69 0 -93 22t-24 93zM150 0v1038h192v-1038h-192z" />
<glyph unicode="&#x457;" horiz-adv-x="489" d="M-63 1274q0 61 21 78.5t83 17.5q61 0 81.5 -17.5t20.5 -78.5q0 -67 -20.5 -87t-81.5 -20q-62 0 -83 20t-21 87zM150 0v1038h192v-1038h-192zM348 1274q0 61 21 78.5t84 17.5q61 0 81.5 -17.5t20.5 -78.5q0 -67 -20.5 -87t-81.5 -20q-62 0 -83.5 20t-21.5 87z" />
<glyph unicode="&#x458;" horiz-adv-x="489" d="M-41 -250q101 0 146 42.5t45 164.5v1081h192v-1077q0 -113 -25 -188t-77.5 -116t-118.5 -57t-162 -16v166zM131 1350q0 65 24 83.5t93 18.5q68 0 91 -18.5t23 -83.5q0 -71 -23.5 -93t-90.5 -22q-69 0 -93 22t-24 93z" />
<glyph unicode="&#x459;" horiz-adv-x="1781" d="M74 0q171 513 196 1038h705v-395h383q162 0 240.5 -78t78.5 -237q0 -173 -77 -250.5t-242 -77.5h-578v866h-325q-18 -207 -65.5 -440.5t-108.5 -425.5h-207zM975 156h352q76 0 109.5 38.5t33.5 131.5q0 88 -34.5 124.5t-110.5 36.5h-350v-331z" />
<glyph unicode="&#x45a;" horiz-adv-x="1828" d="M150 0v1038h192v-395h485v395h193v-395h383q163 0 241 -78t78 -237q0 -173 -76.5 -250.5t-242.5 -77.5h-576v487h-485v-487h-192zM1020 156h352q76 0 110 39.5t34 130.5q0 88 -35 124.5t-111 36.5h-350v-331z" />
<glyph unicode="&#x45b;" horiz-adv-x="1163" d="M31 1204v142h119v133h192v-133h229v-142h-229v-215q48 32 129 55t166 23q103 0 171 -20.5t118 -73t72 -145.5t22 -236v-592h-193v567q0 134 -25.5 204.5t-75 95t-140.5 24.5q-99 0 -171.5 -32.5t-72.5 -86.5v-772h-192v1204h-119z" />
<glyph unicode="&#x45c;" horiz-adv-x="1054" d="M150 0v1038h192v-499q130 124 444 499h236q-330 -404 -428 -473q33 -13 56 -25t56 -36.5t65.5 -62.5t74.5 -96t93 -144.5t112 -200.5h-230q-73 140 -140 236.5t-126.5 148.5t-107.5 76t-105 35v-496h-192zM428 1163l246 264h221l-285 -264h-182z" />
<glyph unicode="&#x45e;" horiz-adv-x="1044" d="M25 1038h206q151 -355 289 -854q195 486 293 854h201q-135 -456 -389 -1058q-84 -204 -174 -373h-220q77 142 168 344q-182 658 -374 1087zM236 1434h143q0 -76 34.5 -102.5t114.5 -26.5q78 0 114 27t36 102h135q0 -271 -289 -271q-288 0 -288 271z" />
<glyph unicode="&#x45f;" horiz-adv-x="1169" d="M150 0v1038h192v-866h485v866h193v-1038h-313l-43 -350h-146l-43 350h-325z" />
<glyph unicode="&#x472;" horiz-adv-x="1564" d="M119 723q0 174 26.5 300.5t77 211t133 135t184.5 71.5t242 21t242 -21t185 -71.5t133.5 -135t77 -211t26.5 -300.5q0 -176 -26.5 -304t-77 -214.5t-132.5 -138t-185 -73.5t-243 -22q-139 0 -241.5 22t-185 73.5t-133 138t-77 214.5t-26.5 304zM344 719q0 -118 8.5 -202.5 t30 -148.5t53 -103.5t83 -64t113.5 -33.5t150 -9q89 0 151.5 9t114 33.5t83.5 64t54 103.5t31 148.5t9 202.5q0 122 -8.5 208t-31 149.5t-54 101.5t-84 61t-114 31t-151.5 8t-150.5 -8t-113 -31t-83 -61t-52.5 -101.5t-30.5 -149.5t-8.5 -208zM498 680v164h569v-164h-569z " />
<glyph unicode="&#x473;" horiz-adv-x="1202" d="M117 524q0 158 29 263.5t91 167t149 87t214 25.5q102 0 176.5 -16t134.5 -53t97 -99.5t56 -155t19 -219.5q0 -159 -28.5 -266t-90 -170.5t-149 -90t-215.5 -26.5q-127 0 -214.5 26.5t-149.5 90t-90.5 170.5t-28.5 266zM322 520q0 -157 26.5 -238.5t84 -113t167.5 -31.5 q83 0 133.5 16t84.5 59.5t47.5 116.5t13.5 191q0 124 -13 197.5t-48 115t-84.5 55t-133.5 13.5q-67 0 -110.5 -8.5t-78 -31.5t-53 -66.5t-27.5 -109.5t-9 -165zM362 465v151h478v-151h-478z" />
<glyph unicode="&#x490;" horiz-adv-x="1103" d="M195 0v1427h723l55 351h145v-529h-717v-1249h-206z" />
<glyph unicode="&#x491;" horiz-adv-x="843" d="M147 0v1038h508l50 316h135v-488h-498v-866h-195z" />
<glyph unicode="&#x492;" horiz-adv-x="1140" d="M39 616v164h156v647h923v-178h-717v-469h207v-164h-207v-616h-206v616h-156z" />
<glyph unicode="&#x493;" horiz-adv-x="843" d="M20 467v151h130v420h690v-172h-498v-248h156v-151h-156v-467h-192v467h-130z" />
<glyph unicode="&#x496;" horiz-adv-x="2058" d="M0 0q73 191 137.5 327t113.5 215.5t103.5 130.5t94 71.5t98.5 39.5q-61 50 -199.5 218t-320.5 425h247q146 -215 296 -399.5t249 -279.5v679h209v-679q96 91 247 276t300 403h248q-182 -257 -320.5 -425t-199.5 -218q44 -14 74.5 -28.5t70.5 -42t74.5 -69.5t76 -105.5 t87 -156t96.5 -214.5h235v-508h-192v340h-211q-77 211 -142 342t-135 207t-139.5 105.5t-169.5 37.5v-692h-209v692q-80 -7 -138 -27t-116 -64.5t-109 -121.5t-105 -193.5t-115 -285.5h-236z" />
<glyph unicode="&#x497;" horiz-adv-x="1681" d="M2 0q66 135 123 233.5t96 153.5t81 92.5t66 51.5t62 30q-97 76 -401 477h227q267 -351 403 -493v493h193v-493q156 167 401 493h228q-142 -190 -249.5 -316t-152.5 -161q34 -15 54 -26t56.5 -40t68 -68t77 -108t95.5 -163h229v-351h-172v195h-201q-66 137 -127.5 232.5 t-115.5 148t-98 77.5t-93 36v-494h-193v494q-50 -11 -94.5 -36t-98.5 -77.5t-114.5 -148t-126.5 -232.5h-223z" />
<glyph unicode="&#x498;" horiz-adv-x="1308" d="M115 27l43 178q73 -23 187.5 -36t215.5 -13q220 0 304.5 56.5t84.5 197.5q0 145 -73 202.5t-248 57.5h-219v174h217q165 0 229 51t64 176q0 79 -28.5 121.5t-106.5 64t-224 21.5q-97 0 -210 -13t-179 -34l-45 178q252 53 461 53q203 0 324.5 -39t174 -115.5t52.5 -201.5 q0 -58 -6.5 -102.5t-25 -88.5t-51 -74t-86.5 -51t-128 -28q98 -4 165.5 -33.5t103.5 -81.5t50.5 -114t14.5 -144q0 -197 -103.5 -292.5t-322.5 -116.5v-318h-193v309q-104 3 -227.5 19t-214.5 37z" />
<glyph unicode="&#x499;" horiz-adv-x="1040" d="M74 12l45 174q122 -45 313 -45q168 0 228.5 37t60.5 135q0 91 -62 128.5t-208 37.5h-156v154h156q135 0 190 28.5t55 104.5q0 73 -56.5 103t-207.5 30q-174 0 -305 -43l-43 170q154 41 350 41q252 0 357.5 -61t105.5 -199q0 -55 -10.5 -95.5t-37 -75.5t-77 -56 t-125.5 -27q153 -7 216 -79t63 -195q0 -139 -75 -208.5t-235 -88.5v-320h-192v309q-205 3 -350 41z" />
<glyph unicode="&#x49a;" horiz-adv-x="1503" d="M195 0v1427h206v-690q106 89 279.5 278.5t339.5 411.5h262q-203 -257 -356.5 -425t-220.5 -218q41 -12 70 -23.5t67.5 -33t70 -49.5t71 -73t77.5 -104.5t83 -143.5t93 -189h233v-508h-192v340h-215q-58 142 -109 246t-102.5 179.5t-99.5 123.5t-105.5 78t-113.5 43.5 t-132 19.5v-690h-206z" />
<glyph unicode="&#x49b;" horiz-adv-x="1226" d="M150 0v1038h192v-499q130 124 444 499h236q-330 -404 -428 -473q44 -18 74 -36t76 -60t100 -119.5t121 -193.5h225v-351h-172v195h-197q-73 140 -140 236.5t-126.5 148.5t-107.5 76t-105 35v-496h-192z" />
<glyph unicode="&#x49c;" horiz-adv-x="1310" d="M195 0v1427h206v-690q55 45 123 113v362h154v-200q179 197 342 415h262q-203 -257 -356.5 -425t-220.5 -218q65 -19 108.5 -39.5t104 -71.5t115 -130.5t126 -215.5t152.5 -327h-248q-107 261 -196.5 402t-188.5 206v-291h-154v355q-40 10 -123 18v-690h-206z" />
<glyph unicode="&#x49d;" horiz-adv-x="1054" d="M150 0v1038h192v-499q2 2 32 30.5t48 48.5v273h121v-137q133 151 243 284h236q-330 -404 -428 -473q33 -13 56 -25t56 -36.5t65.5 -62.5t74.5 -96t93 -144.5t112 -200.5h-230q-151 284 -278 395v-196h-121v272q-33 14 -80 25v-496h-192z" />
<glyph unicode="&#x4a0;" horiz-adv-x="1310" d="M25 1253v172h170v2h206v-690q106 89 279.5 278.5t339.5 411.5h262q-203 -257 -356.5 -425t-220.5 -218q65 -19 108.5 -39.5t104 -71.5t115 -130.5t126 -215.5t152.5 -327h-248q-58 142 -109 246t-102.5 179.5t-99.5 123.5t-105.5 78t-113.5 43.5t-132 19.5v-690h-206 v1253h-170z" />
<glyph unicode="&#x4a1;" horiz-adv-x="1054" d="M8 887v151h334v-499q130 124 444 499h236q-330 -404 -428 -473q33 -13 56 -25t56 -36.5t65.5 -62.5t74.5 -96t93 -144.5t112 -200.5h-230q-73 140 -140 236.5t-126.5 148.5t-107.5 76t-105 35v-496h-192v887h-142z" />
<glyph unicode="&#x4a2;" horiz-adv-x="1536" d="M195 0v1427h206v-571h684v571h207v-1259h232v-508h-193v340h-246v666h-684v-666h-206z" />
<glyph unicode="&#x4a3;" horiz-adv-x="1239" d="M147 0v1038h195v-399h483v399h195v-882h207v-351h-172v195h-230v473h-483v-473h-195z" />
<glyph unicode="&#x4aa;" horiz-adv-x="1222" d="M119 727q0 175 26.5 301t76.5 210t132 133.5t184 70t242 20.5q96 0 209 -15t195 -38l-51 -186q-59 22 -152.5 35.5t-175.5 13.5q-91 0 -151.5 -7t-116.5 -28t-89 -58t-58.5 -98.5t-35.5 -148t-10 -207.5t10.5 -208t35 -150t58.5 -102t89 -62t117 -31t151 -8 q81 0 174.5 13t153.5 34l51 -186q-159 -46 -342 -52v-311h-193v315q-185 17 -299 93.5t-172.5 237t-58.5 419.5z" />
<glyph unicode="&#x4ab;" horiz-adv-x="958" d="M117 524q0 156 34 263t102 168t158 86.5t214 25.5q72 0 161 -14t146 -35l-51 -172q-106 47 -248 47q-86 0 -139 -13t-94.5 -52.5t-59.5 -114t-18 -193.5q0 -113 18 -187t59 -115t96 -57t138 -16q122 0 248 52l51 -170q-82 -37 -227 -52v-313h-193v315q-130 15 -215 71.5 t-132.5 174.5t-47.5 301z" />
<glyph unicode="&#x4ae;" horiz-adv-x="1273" d="M-45 1427h270q221 -276 428 -585q237 311 414 585h248q-288 -423 -567 -776v-651h-209v651q-305 440 -584 776z" />
<glyph unicode="&#x4af;" horiz-adv-x="1044" d="M25 1038h206q151 -355 289 -854q195 486 293 854h201q-46 -156 -149 -420.5t-183 -451.5l-80 -186q2 -373 0 -373h-176v368q-45 110 -185.5 503t-215.5 560z" />
<glyph unicode="&#x4b0;" horiz-adv-x="1273" d="M-45 1427h270q221 -276 428 -585q237 311 414 585h248q-288 -423 -567 -776v-194h174v-164h-174v-293h-209v293h-187v164h187v194q-305 440 -584 776z" />
<glyph unicode="&#x4b1;" horiz-adv-x="1044" d="M25 1038h206q151 -355 289 -854q195 486 293 854h201q-46 -156 -149 -420.5t-183 -451.5l-80 -186v-82h158v-152h-158v-139h-176v139h-143v152h143v77q-45 110 -185.5 503t-215.5 560z" />
<glyph unicode="&#x4b2;" horiz-adv-x="1540" d="M10 0q228 287 551 723q-293 392 -541 704h265q182 -234 405 -526q187 250 379 526h252q-213 -305 -504 -698q313 -428 408 -561h288v-508h-192v340h-236q-252 354 -397 553q-196 -261 -426 -553h-252z" />
<glyph unicode="&#x4b3;" horiz-adv-x="1198" d="M37 0q155 177 412 518q-209 287 -410 520h244q128 -158 274 -362q90 120 248 362h221q-181 -272 -360 -512q125 -171 260 -370h245v-351h-172v195h-196q-89 144 -250 373q-136 -181 -293 -373h-223z" />
<glyph unicode="&#x4b6;" horiz-adv-x="1353" d="M25 895v532h208v-509q0 -100 18.5 -163t63 -97.5t104 -47t156.5 -12.5q139 0 230.5 37t91.5 102v690h207v-1259h235v-508h-192v340h-250v479q-45 -31 -143 -53.5t-207 -22.5q-101 0 -176 11.5t-143 43.5t-110.5 86t-67.5 142t-25 209z" />
<glyph unicode="&#x4b7;" horiz-adv-x="1171" d="M88 803v235h193v-211q0 -100 13 -163t44 -98t73.5 -47.5t110.5 -12.5q100 0 172 31.5t72 87.5v413h192v-882h199v-351h-172v195h-219v406q-48 -32 -129.5 -55t-165.5 -23q-103 0 -171 20.5t-118 73t-72 145.5t-22 236z" />
<glyph unicode="&#x4b8;" horiz-adv-x="1298" d="M25 895v532h208v-509q0 -119 29 -187t86 -97t156 -34v379h153v-379q108 11 174 46.5t66 90.5v690h207v-1427h-207v479q-69 -50 -240 -69v-326h-153v319q-92 2 -162 15.5t-132 47t-101 88t-61.5 140t-22.5 201.5z" />
<glyph unicode="&#x4b9;" horiz-adv-x="1107" d="M88 803v235h193v-211q0 -171 41 -239.5t139 -79.5v285h121v-285q80 10 132 40t52 77v413h192v-1038h-192v406q-72 -47 -184 -68v-238h-121v228q-101 1 -167 22t-114.5 74t-70 145.5t-21.5 233.5z" />
<glyph unicode="&#x4ba;" horiz-adv-x="1298" d="M127 -2v1427h207v-479q45 31 143 53.5t207 22.5q101 0 176 -11.5t143 -43.5t110.5 -86t67.5 -142t25 -209v-532h-209v510q0 100 -18.5 162.5t-63 97.5t-104 47t-156.5 12q-139 0 -230 -37t-91 -102v-690h-207z" />
<glyph unicode="&#x4bb;" horiz-adv-x="1163" d="M147 0v1479h195v-490q48 32 128.5 55t164.5 23q103 0 171.5 -20.5t118.5 -73t72.5 -145.5t22.5 -236v-592h-195v567q0 84 -8.5 138t-33 98.5t-73 65t-124.5 20.5q-101 0 -172.5 -31.5t-71.5 -87.5v-770h-195z" />
<glyph unicode="&#x4d8;" horiz-adv-x="1124" d="M117 764h706q-1 142 -19 233t-58 141.5t-94 69.5t-138 19q-57 0 -145.5 -20t-149.5 -48l-37 221q79 34 180 56t175 22q95 0 169.5 -22.5t136.5 -76t102.5 -140t62.5 -216.5t22 -303q0 -208 -30.5 -353t-93 -230t-148 -122.5t-203.5 -37.5q-97 0 -166.5 22t-124.5 75.5 t-87 145.5t-47.5 231t-12.5 333zM309 547q5 -152 30 -231t72.5 -107.5t135.5 -28.5q96 0 151.5 33t85 112t37.5 222h-512z" />
<glyph unicode="&#x4d9;" horiz-adv-x="1124" d="M117 557h706q-1 104 -19 170.5t-58 103.5t-94 50.5t-138 13.5q-58 0 -146.5 -14t-148.5 -35l-37 162q79 25 180 41t175 16q120 0 207.5 -27t153.5 -89.5t99 -171t33 -265.5q0 -152 -30.5 -258t-93 -168t-148 -89.5t-203.5 -27.5q-122 0 -202 25.5t-136.5 91t-80 180 t-19.5 291.5zM309 399q5 -111 30 -168.5t72.5 -78.5t135.5 -21q143 0 202.5 57t71.5 211h-512z" />
<glyph unicode="&#x4e2;" horiz-adv-x="1540" d="M195 0v1427h204v-1173q385 599 695 1173h252v-1427h-205v1122q-349 -636 -670 -1122h-276zM481 1532v164h570v-164h-570z" />
<glyph unicode="&#x4e3;" horiz-adv-x="1175" d="M147 0v1038h195v-753q220 284 492 753h192v-1038h-192v725q-190 -335 -492 -725h-195zM365 1188v151h477v-151h-477z" />
<glyph unicode="&#x4e8;" horiz-adv-x="1564" d="M119 723q0 174 26.5 300.5t77 211t133 135t184.5 71.5t242 21t242 -21t185 -71.5t133.5 -135t77 -211t26.5 -300.5q0 -176 -26.5 -304t-77 -214.5t-132.5 -138t-185 -73.5t-243 -22q-139 0 -241.5 22t-185 73.5t-133 138t-77 214.5t-26.5 304zM344 719q0 -118 8.5 -202.5 t30 -148.5t53 -103.5t83 -64t113.5 -33.5t150 -9q89 0 151.5 9t114 33.5t83.5 64t54 103.5t31 148.5t9 202.5q0 122 -8.5 208t-31 149.5t-54 101.5t-84 61t-114 31t-151.5 8t-150.5 -8t-113 -31t-83 -61t-52.5 -101.5t-30.5 -149.5t-8.5 -208zM498 680v164h569v-164h-569z " />
<glyph unicode="&#x4e9;" horiz-adv-x="1202" d="M117 524q0 158 29 263.5t91 167t149 87t214 25.5q102 0 176.5 -16t134.5 -53t97 -99.5t56 -155t19 -219.5q0 -159 -28.5 -266t-90 -170.5t-149 -90t-215.5 -26.5q-127 0 -214.5 26.5t-149.5 90t-90.5 170.5t-28.5 266zM322 520q0 -157 26.5 -238.5t84 -113t167.5 -31.5 q83 0 133.5 16t84.5 59.5t47.5 116.5t13.5 191q0 124 -13 197.5t-48 115t-84.5 55t-133.5 13.5q-67 0 -110.5 -8.5t-78 -31.5t-53 -66.5t-27.5 -109.5t-9 -165zM362 465v151h478v-151h-478z" />
<glyph unicode="&#x4ee;" horiz-adv-x="1198" d="M-20 1427h243q103 -183 210.5 -413.5t180.5 -433.5q275 552 375 847h230q-139 -354 -336 -749t-375 -678h-256q124 164 231 354q-67 203 -221.5 533.5t-281.5 539.5zM338 1536v164h569v-164h-569z" />
<glyph unicode="&#x4ef;" horiz-adv-x="1044" d="M25 1038h206q151 -355 289 -854q195 486 293 854h201q-135 -456 -389 -1058q-84 -204 -174 -373h-220q77 142 168 344q-182 658 -374 1087zM295 1186v151h477v-151h-477z" />
<glyph unicode="&#x2000;" horiz-adv-x="897" />
<glyph unicode="&#x2001;" horiz-adv-x="1794" />
<glyph unicode="&#x2002;" horiz-adv-x="897" />
<glyph unicode="&#x2003;" horiz-adv-x="1794" />
<glyph unicode="&#x2004;" horiz-adv-x="598" />
<glyph unicode="&#x2005;" horiz-adv-x="448" />
<glyph unicode="&#x2006;" horiz-adv-x="299" />
<glyph unicode="&#x2007;" horiz-adv-x="299" />
<glyph unicode="&#x2008;" horiz-adv-x="224" />
<glyph unicode="&#x2009;" horiz-adv-x="358" />
<glyph unicode="&#x200a;" horiz-adv-x="99" />
<glyph unicode="&#x2010;" horiz-adv-x="593" d="M63 479v183h467v-183h-467z" />
<glyph unicode="&#x2011;" horiz-adv-x="593" d="M63 479v183h467v-183h-467z" />
<glyph unicode="&#x2012;" horiz-adv-x="593" d="M63 479v183h467v-183h-467z" />
<glyph unicode="&#x2013;" horiz-adv-x="1148" d="M104 479v183h940v-183h-940z" />
<glyph unicode="&#x2014;" horiz-adv-x="1742" d="M104 479v183h1534v-183h-1534z" />
<glyph unicode="&#x2018;" horiz-adv-x="483" d="M49 1034l223 531h164l-160 -531h-227z" />
<glyph unicode="&#x2019;" horiz-adv-x="481" d="M47 1028l160 533h227l-223 -533h-164z" />
<glyph unicode="&#x201a;" horiz-adv-x="471" d="M41 -326l160 531h227l-223 -531h-164z" />
<glyph unicode="&#x201c;" horiz-adv-x="845" d="M49 1034l223 531h164l-160 -531h-227zM414 1034l223 531h164l-160 -531h-227z" />
<glyph unicode="&#x201d;" horiz-adv-x="845" d="M47 1030l160 531h227l-223 -531h-164zM412 1030l159 531h228l-224 -531h-163z" />
<glyph unicode="&#x201e;" horiz-adv-x="845" d="M47 -332l160 533h227l-223 -533h-164zM412 -332l159 533h228l-224 -533h-163z" />
<glyph unicode="&#x2026;" horiz-adv-x="2408" d="M350 129q0 76 28 99.5t105 23.5q80 0 107.5 -23t27.5 -100q0 -83 -27.5 -108t-107.5 -25q-77 0 -105 25t-28 108zM1069 129q0 76 28 99.5t105 23.5q80 0 107.5 -23t27.5 -100q0 -83 -27.5 -108t-107.5 -25q-77 0 -105 25t-28 108zM1790 129q0 76 27.5 99.5t103.5 23.5 q81 0 108 -23t27 -100q0 -84 -27 -108.5t-108 -24.5q-76 0 -103.5 25t-27.5 108z" />
<glyph unicode="&#x202f;" horiz-adv-x="358" />
<glyph unicode="&#x2039;" horiz-adv-x="786" d="M61 625l551 561l115 -119l-403 -436l403 -447l-111 -121z" />
<glyph unicode="&#x203a;" horiz-adv-x="786" d="M63 184l404 437l-404 446l111 121l553 -563l-551 -559z" />
<glyph unicode="&#x205f;" horiz-adv-x="448" />
<glyph unicode="&#x20ac;" horiz-adv-x="1222" d="M119 727q0 175 26.5 301t76.5 210t132 133.5t184 70t242 20.5q96 0 209 -15t195 -38l-51 -186q-59 22 -152.5 35.5t-175.5 13.5q-83 0 -141 -6t-111 -24t-87.5 -49.5t-60 -82t-38.5 -123.5h544v-149h-567v-113v-111h567v-147h-544q17 -94 49.5 -153.5t89 -92.5t125.5 -45 t174 -12q81 0 174.5 13t153.5 34l51 -186q-82 -24 -194 -39t-210 -15q-174 0 -293.5 36.5t-204.5 123t-124 233t-39 363.5z" />
<glyph unicode="&#x2122;" horiz-adv-x="1589" d="M23 1300v127h598v-127h-224v-595h-149v595h-225zM700 705v722h205l189 -548l182 548h197v-722h-140v567l-184 -553h-133l-178 553v-567h-138z" />
<glyph unicode="&#xe000;" horiz-adv-x="1034" d="M0 0v1034h1034v-1034h-1034z" />
</font>
</defs>
</svg>
